<svg height='100px' width='100px'  fill="#1A1A1A" xmlns="http://www.w3.org/2000/svg" data-name="Layer 1" viewBox="0 0 100 100" x="0px" y="0px"><title>9</title><path d="M12.31389,95H87.68611A7.3139,7.3139,0,0,0,95,87.68611V12.31389A7.3139,7.3139,0,0,0,87.68611,5H12.31389A7.3139,7.3139,0,0,0,5,12.31389V87.68611A7.3139,7.3139,0,0,0,12.31389,95ZM56.71853,18.99645a5.39128,5.39128,0,1,1-5.39128,5.39128A5.39128,5.39128,0,0,1,56.71853,18.99645ZM45.75235,35.431c5.10171-2.466,12.9912-.34489,11.61438,4.79292L49.92584,67.99469c-2.6031,9.71407,4.555,6.529,7.76119,5.12153a19.82013,19.82013,0,0,1-7.86216,6.86017c-5.10171,2.466-12.99107.34489-11.61438-4.79291l7.441-27.77017c2.603-9.71407-4.555-6.529-7.76132-5.12146A19.81855,19.81855,0,0,1,45.75235,35.431Z"></path></svg>