<svg height='100px' width='100px'  fill="#1A1A1A" xmlns="http://www.w3.org/2000/svg" viewBox="0 0 24 24" x="0px" y="0px"><title>_</title><g><path d="M5.75,7.5h8.5a.75.75,0,0,0,0-1.5H5.75a.75.75,0,0,0,0,1.5Z"></path><path d="M5.75,10.5h8.5a.75.75,0,0,0,0-1.5H5.75a.75.75,0,0,0,0,1.5Z"></path><path d="M5.75,13.5h8.5a.75.75,0,0,0,0-1.5H5.75a.75.75,0,0,0,0,1.5Z"></path><path d="M11.25,15H5.75a.75.75,0,0,0,0,1.5h5.5a.75.75,0,0,0,0-1.5Z"></path><path d="M20.25,15H18V12.75a.75.75,0,0,0-1.5,0V15H14.25a.75.75,0,0,0,0,1.5H16.5v2.25a.75.75,0,0,0,1.5,0V16.5h2.25a.75.75,0,0,0,0-1.5Z"></path></g></svg>