<svg height='100px' width='100px'  fill="#1A1A1A" xmlns="http://www.w3.org/2000/svg" xmlns:xlink="http://www.w3.org/1999/xlink" version="1.1" x="0px" y="0px" viewBox="0 0 100 100" style="enable-background:new 0 0 100 100;" xml:space="preserve"><style type="text/css">
	.st0{fill:#1A1A1A;}
</style><g><path class="st0" d="M72.5,95C82.2,95,90,87.2,90,77.5c0-7.9-5.3-14.6-12.5-16.8V25l-20-20H15v77.5h40.7C57.9,89.7,64.6,95,72.5,95   z M85,77.5C85,84.4,79.4,90,72.5,90S60,84.4,60,77.5S65.6,65,72.5,65S85,70.6,85,77.5z M57.5,15.6l9.4,9.4h-9.4V15.6z M22.5,75   V12.5h30V30H70v30.2c-7.7,1.1-13.7,7.1-14.8,14.8H22.5z"></path><polygon class="st0" points="70,85 75,85 75,80 80,80 80,75 75,75 75,70 70,70 70,75 65,75 65,80 70,80  "></polygon></g></svg>