<svg height='100px' width='100px'  fill="#1A1A1A" xmlns:dc="http://purl.org/dc/elements/1.1/" xmlns:cc="http://creativecommons.org/ns#" xmlns:rdf="http://www.w3.org/1999/02/22-rdf-syntax-ns#" xmlns:svg="http://www.w3.org/2000/svg" xmlns="http://www.w3.org/2000/svg" xmlns:sodipodi="http://sodipodi.sourceforge.net/DTD/sodipodi-0.dtd" xmlns:inkscape="http://www.inkscape.org/namespaces/inkscape" viewBox="0 0 8.4666667 8.4666669" version="1.1" x="0px" y="0px"><svg:g><svg:path style="color:#000000;font-style:normal;font-variant:normal;font-weight:normal;font-stretch:normal;font-size:medium;line-height:normal;font-family:sans-serif;font-variant-ligatures:normal;font-variant-position:normal;font-variant-caps:normal;font-variant-numeric:normal;font-variant-alternates:normal;font-feature-settings:normal;text-indent:0;text-align:start;text-decoration:none;text-decoration-line:none;text-decoration-style:solid;text-decoration-color:#000000;letter-spacing:normal;word-spacing:normal;text-transform:none;writing-mode:lr-tb;direction:ltr;text-orientation:mixed;dominant-baseline:auto;baseline-shift:baseline;text-anchor:start;white-space:normal;shape-padding:0;clip-rule:nonzero;display:inline;overflow:visible;visibility:visible;opacity:1;isolation:auto;mix-blend-mode:normal;color-interpolation:sRGB;color-interpolation-filters:linearRGB;solid-color:#000000;solid-opacity:1;vector-effect:none;fill:#1A1A1A;fill-opacity:1;fill-rule:nonzero;stroke:none;stroke-width:0.5291667;stroke-linecap:round;stroke-linejoin:round;stroke-miterlimit:4;stroke-dasharray:none;stroke-dashoffset:0;stroke-opacity:1;color-rendering:auto;image-rendering:auto;shape-rendering:auto;text-rendering:auto;enable-background:accumulate" d="M 6.2564668,-6.2537874e-7 C 5.2340056,-6.2537874e-7 4.3992161,0.83478937 4.3992161,1.8572504 c 0,1.022462 0.8347895,1.8557 1.8572507,1.8557 1.0224611,0 1.8577692,-0.833238 1.8577665,-1.8557 C 8.1142333,0.83478937 7.2789279,-6.2537874e-7 6.2564668,-6.2537874e-7 Z M 6.2528468,0.88056537 A 0.26460979,0.26460979 0 0 1 6.5200125,1.1503164 v 0.441317 h 0.4433861 a 0.2646485,0.2646485 0 1 1 0,0.529167 h -0.443383 v 0.441316 a 0.26460979,0.26460979 0 1 1 -0.5270977,0 v -0.441316 h -0.443386 a 0.2646485,0.2646485 0 1 1 0,-0.529167 h 0.443386 V 1.1503164 A 0.26460979,0.26460979 0 0 1 6.2528499,0.88056537 Z M 2.8173963,1.7849034 c -0.8120168,0 -1.4769121,0.664379 -1.4769121,1.476395 0,0.812016 0.6648953,1.476913 1.4769121,1.476913 0.8120168,0 1.4763962,-0.664897 1.4763962,-1.476913 0,-0.812016 -0.6643794,-1.476395 -1.4763962,-1.476395 z m -1.3735579,3.242179 c -0.6000644,0 -1.09140623,0.489793 -1.09140623,1.089856 v 2.084111 a 0.26460979,0.26460979 0 0 0 0.26561521,0.265616 H 5.0162324 a 0.26460979,0.26460979 0 0 0 0.2635488,-0.265616 v -2.084111 c 0,-0.600063 -0.4892754,-1.089856 -1.0893372,-1.089856 z"></svg:path></svg:g></svg>