<svg height='100px' width='100px'  fill="#1A1A1A" xmlns:x="http://ns.adobe.com/Extensibility/1.0/" xmlns:i="http://ns.adobe.com/AdobeIllustrator/10.0/" xmlns:graph="http://ns.adobe.com/Graphs/1.0/" xmlns="http://www.w3.org/2000/svg" xmlns:xlink="http://www.w3.org/1999/xlink" version="1.1" x="0px" y="0px" viewBox="0 0 100 100" enable-background="new 0 0 100 100" xml:space="preserve"><g><g i:extraneous="self"><g><path fill="#1A1A1A" d="M65.7,41.4c0,2.8,1.3,5.4,3.5,7c-0.8,0.2-1.5,0.5-2.2,0.9c0.4,1.1,0.5,2.2,0.5,3.4c0,2.3-0.7,4.5-2.1,6.3     c1,0.5,1.9,1,2.7,1.7c1.1-4.5,5-7.9,9.8-7.9c5.5,0,10.1,4.7,10.1,10.4c0,1.1-0.2,2.2-0.5,3.2h2.9v-1.5c0-7.5-4.8-14.3-11.7-16.5     c2.1-1.6,3.5-4.2,3.5-7c0-4.6-3.5-8.5-8.2-8.5C69.2,32.9,65.7,36.8,65.7,41.4z M82.6,70.1c1.3-0.9,2.3-2.3,2.8-3.8     c0.4-1,0.6-2.1,0.6-3.2c0-4.6-3.5-8.5-8.2-8.5c-4.3,0-7.6,3.3-8.1,7.4c0,0.4-0.1,0.7-0.1,1.1c0,0.6,0.1,1.1,0.2,1.7     c0.1,0.5,0.3,1.1,0.5,1.6c0.5,1.3,1.4,2.5,2.4,3.4l0,0c0,0.1,0.1,0.3,0.1,0.4c-3.8,1.3-7,4-9,7.4c-1.6,2.6-2.4,5.7-2.4,9V88h32.9     v-1.5C94.3,79,89.6,72.2,82.6,70.1z M44.9,72.4c2.1-1.6,3.5-4.2,3.5-7c0-1.1-0.2-2.2-0.6-3.2c-1.2-3.1-4.1-5.4-7.6-5.4     c-4.7,0-8.2,4-8.2,8.5c0,2.8,1.3,5.4,3.5,7c-6.9,2.2-11.7,8.9-11.7,16.4v1.5h32.9v-1.5c0-4.2-1.5-8.2-4-11.3     C50.6,75.2,47.9,73.3,44.9,72.4z M54.9,77.6h6.9c1.8-3.5,4.6-6.4,8.1-8.1c-0.7-0.9-1.2-2-1.6-3.1c-0.3-1-0.5-2.1-0.5-3.2     c0-0.1,0-0.2,0-0.4c-1.6-1.4-3.5-2.5-5.7-3.1c2.1-1.6,3.5-4.2,3.5-7c0-0.8-0.1-1.7-0.3-2.4c-1-3.5-4.1-6.1-7.9-6.1     c-4.7,0-8.2,4-8.2,8.5c0,2.8,1.3,5.4,3.5,7c-1.2,0.4-2.3,0.9-3.4,1.5c0.6,1.3,0.9,2.7,0.9,4.3c0,2.3-0.7,4.5-2.1,6.3     C50.8,73.1,53.1,75.1,54.9,77.6z M41.8,43l2.7-4l0.3-0.4l0.1-0.2c0.1-0.1,0.1-0.2,0.2-0.2l1-0.4l2.1-0.8l4.9-1.8l2.8-1l0.7-0.3     l0.4-0.1c0.1-0.1,0.3-0.1,0.3-0.2l0.9-1.3L67.9,19l1.9,11.5l3.4-4.7l-1.8-11l-0.6-3.5l-3.5,0.6l-11,1.8L53,18.4l11.6-1.9     l-9.3,12.8l-0.6,0.8c0,0.1-0.1,0.1-0.2,0.1l-0.2,0.1l-0.5,0.2l-2.1,0.8l-4.9,1.8l-2.8,1l-1.5,0.5c-0.1,0-0.2,0.1-0.3,0.2     l-0.2,0.3L41.5,36l-3.2,4.7L26.6,57.9L4.8,90.1h5l20.2-29.9L41.8,43z"></path></g></g></g></svg>