<svg height='100px' width='100px'  fill="#1A1A1A" xmlns="http://www.w3.org/2000/svg" data-name="Layer 1" viewBox="0 0 100 100" x="0px" y="0px"><title>Forward</title><path d="M61.31,36.5c.95,2.65-.36,4.3-3.14,4.15-.42,0-16-2.48-23.42-3.63l-19.84-3.1c-4.84-.76-9.67-1.5-14.91-2.31.72.81,9.79,10.55,13.88,14.94,2.5,2.7,2.49,4.21,0,6.86L0,68.08c2.33-.33,19.73-3,26.58-4S40.41,62,47.32,60.94c3.7-.56,7.4-1.18,11.11-1.55,2.47-.25,3.69,1.46,3,3.85-.17.58-3,7.91-4.34,11.45L100,50,57.08,25.31C58.63,29.38,60,32.92,61.31,36.5Z"></path></svg>