<svg height='100px' width='100px'  fill="#1A1A1A" xmlns="http://www.w3.org/2000/svg" xmlns:xlink="http://www.w3.org/1999/xlink" version="1.1" x="0px" y="0px" viewBox="0 0 100 100" enable-background="new 0 0 100 100" xml:space="preserve"><path d="M68,56.5c0-5.2,4.2-9.4,9.4-9.4c1.2,0,2.2,1,2.2,2.2c0,1.2-1,2.2-2.2,2.2c-2.7,0-4.9,2.2-4.9,4.9c0,1.2-1,2.2-2.2,2.2  S68,57.8,68,56.5z M0.6,56.5c0-6.2,2.6-11.8,6.7-15.8c0.6-0.5,1.1-1,1.7-1.5h0l8.3-7c3.2-2.3,7-3.7,11.2-4l-0.4,0.4l5-5.1l0,0  c1.4-1.3,3.3-2.1,5.3-2.1c3.5,0,6.5,2.3,7.5,5.4c1.1-0.7,2.5-1.1,3.9-1.1c0.2,0,0.4,0,0.6,0c1.3,0.1,2.5,0.5,3.5,1.1  c1-3.2,4-5.5,7.5-5.5c2.1,0,3.9,0.8,5.3,2.1l0,0l4.6,4.6c4.1,0.3,8,1.7,11.2,4l8.3,7l0,0c0.6,0.5,1.2,1,1.7,1.5  c4.1,4,6.7,9.6,6.7,15.8c0,12.2-9.9,22.1-22.1,22.1c-11.2,0-20.5-8.4-21.9-19.3c-1.6,0.9-3.5,1.5-5.5,1.5c-2,0-3.9-0.5-5.5-1.5  c-1.3,10.9-10.6,19.3-21.9,19.3C10.4,78.6,0.6,68.7,0.6,56.5z M62.3,56.5c0,8.3,6.7,15.1,15.1,15.1s15.1-6.7,15.1-15.1  s-6.7-15.1-15.1-15.1S62.3,48.2,62.3,56.5z M45.1,49.6c0,2.7,2.2,4.9,4.9,4.9c2.7,0,4.9-2.2,4.9-4.9c0-2.7-2.2-4.9-4.9-4.9  C47.3,44.7,45.1,46.9,45.1,49.6z M7.6,56.5c0,8.3,6.7,15.1,15.1,15.1c8.3,0,15.1-6.7,15.1-15.1s-6.7-15.1-15.1-15.1  C14.3,41.5,7.6,48.2,7.6,56.5z M15.5,58.8c1.2,0,2.2-1,2.2-2.2c0-2.7,2.2-4.9,4.9-4.9c1.2,0,2.2-1,2.2-2.2c0-1.2-1-2.2-2.2-2.2  c-5.2,0-9.4,4.2-9.4,9.4C13.2,57.8,14.2,58.8,15.5,58.8z"></path></svg>