<svg height='100px' width='100px'  fill="#1A1A1A" xmlns="http://www.w3.org/2000/svg" xmlns:xlink="http://www.w3.org/1999/xlink" version="1.0" x="0px" y="0px" viewBox="0 0 50 50" enable-background="new 0 0 50 50" xml:space="preserve"><g><path fill="#1A1A1A" d="M48.811,17h-2.766l-2.268,3.832l-13.934,1.434C29.637,21.77,28.742,21,27.818,21h2.715l-1.225-2   c0,0-4.796,0-5.472,0c-0.677,0-0.943,0-1.441,0H21v-2h18.801l0.426-1H21v-1h-1v1H1.616l-0.427,1H20v2c-1,0-0.765,0-0.765,0   l-1.279,1.612c-0.957,0-2.287,0.444-2.339,0.466c-4.18,0.678-7.864,2.65-7.864,5.608c0,3.424,3.391,4.972,7.528,5.612L13.876,35   c0,0-2.296,0-3.152,0c-0.857,0-1.973-1.75-1.973-1.75l-1.31,0.214c0,0,1.724,2.536,2.616,2.536S28,36,28,36v-1h-6.979l0.585-2.475   c3.721-0.336,6.723-1.991,8.25-4.116l5.011-2.093L43,23.958v-0.016L44.979,26h2.768l-1.375-3.25L48.811,17z M13.737,28.101   l-4.302,0.045c-0.252-0.379-0.398-0.805-0.398-1.248c0-2.867,4.025-4.656,8.283-5.072L13.737,28.101z M20.081,35h-5.156   l1.331-2.596c1.181,0.133,2.44,0.031,3.74,0.031c0.222,0,0.438,0.237,0.654,0.229L20.081,35z M18.93,27h-2.211l2.244-5h2.364   L18.93,27z"></path></g></svg>