<svg height='100px' width='100px'  fill="#1A1A1A" xmlns:x="http://ns.adobe.com/Extensibility/1.0/" xmlns:i="http://ns.adobe.com/AdobeIllustrator/10.0/" xmlns:graph="http://ns.adobe.com/Graphs/1.0/" xmlns="http://www.w3.org/2000/svg" xmlns:xlink="http://www.w3.org/1999/xlink" version="1.1" x="0px" y="0px" viewBox="0 0 100 100" style="enable-background:new 0 0 100 100;" xml:space="preserve"><g><g i:extraneous="self"><g><path d="M5273.1,2400.1v-2c0-2.8-5-4-9.7-4s-9.7,1.3-9.7,4v2c0,1.8,0.7,3.6,2,4.9l5,4.9c0.3,0.3,0.4,0.6,0.4,1v6.4     c0,0.4,0.2,0.7,0.6,0.8l2.9,0.9c0.5,0.1,1-0.2,1-0.8v-7.2c0-0.4,0.2-0.7,0.4-1l5.1-5C5272.4,2403.7,5273.1,2401.9,5273.1,2400.1z      M5263.4,2400c-4.8,0-7.4-1.3-7.5-1.8v0c0.1-0.5,2.7-1.8,7.5-1.8c4.8,0,7.3,1.3,7.5,1.8C5270.7,2398.7,5268.2,2400,5263.4,2400z"></path><path d="M5268.4,2410.3c-0.6,0-1,0.4-1,1c0,0.6,0.4,1,1,1h4.3c0.6,0,1-0.4,1-1c0-0.6-0.4-1-1-1H5268.4z"></path><path d="M5272.7,2413.7h-4.3c-0.6,0-1,0.4-1,1c0,0.6,0.4,1,1,1h4.3c0.6,0,1-0.4,1-1C5273.7,2414.1,5273.3,2413.7,5272.7,2413.7z"></path><path d="M5272.7,2417h-4.3c-0.6,0-1,0.4-1,1c0,0.6,0.4,1,1,1h4.3c0.6,0,1-0.4,1-1C5273.7,2417.5,5273.3,2417,5272.7,2417z"></path></g><g><path d="M61.4,27.8c1.9-1.4,3.2-3.3,3.9-5.4L46.1,12.2c-2.9,3.7-3,9.1-0.1,13.1C49.6,30.3,56.5,31.3,61.4,27.8z"></path><path d="M81.4,26.3c-6.6,0-11.9,5.3-11.9,11.9c0,3.2,1.3,6.1,3.4,8.3l-4.3,6.5c-4.4-1.9-8.6-4.5-9.3-5.8     c-0.2-0.5-0.5-1.2-0.9-1.9c-2.1-4.8-4.5-9.6-7.9-12.7c-1.8-1.8-5.4-4.2-10.2-3.6c-4.1,0.5-10,8.4-13.9,17.5     c-2.9,6.9-3.1,13.3-2.9,16.5c0.2,3.5,1.7,9.7,3.8,15l-17,7.8c-3.1,1.4-4.5,5.1-3,8.2c1,2.3,3.3,3.6,5.6,3.6     c0.9,0,1.7-0.2,2.6-0.6l22.4-10.3c3.1-1.4,4.4-5,3.1-8.1c-1.1-2.6-2.2-5.4-3.1-7.8c0.4,0.2,0.9,0.3,1.4,0.5     c2.3,0.8,6.6,2.4,8.8,3.4c0.5,3.4,1.3,10.9,1.8,17.2c0.3,3.4,3.3,5.9,6.7,5.6c3.4-0.3,5.9-3.3,5.6-6.7     c-1.7-20.2-2.6-21.8-3.3-23.1c-1.7-2.9-4.8-4.3-15.3-8.1l5.1-10.9c0.1,0.2,0.2,0.4,0.3,0.6c0.4,1,0.8,1.8,1.1,2.4     c3.2,6.4,14.4,10.8,17.7,12c0.6,0.2,1.2,0.3,1.7,0.3c2.1,0,4.1-1.3,4.8-3.4c0.7-2,0.1-4.1-1.3-5.5l4-5.9c1.4,0.5,2.8,0.9,4.4,0.9     c6.6,0,11.9-5.3,11.9-11.9C93.3,31.6,88,26.3,81.4,26.3z M81.4,45.1c-3.8,0-6.9-3.1-6.9-6.9s3.1-6.9,6.9-6.9s6.9,3.1,6.9,6.9     S85.2,45.1,81.4,45.1z"></path><path d="M45.1,9.1l23.5,12.5c0.8,0.4,1.7,0.1,2.1-0.7c0.4-0.8,0.1-1.7-0.7-2.1l-2.5-1.3l0.9-6.4c0.2-1.4-0.5-2.7-1.7-3.3     l-9.2-4.9c-1.2-0.6-2.7-0.5-3.7,0.4L49,7.6l-2.5-1.3c-0.8-0.4-1.7-0.1-2.1,0.7C44,7.7,44.3,8.7,45.1,9.1z"></path></g></g></g></svg>