<svg height='100px' width='100px'  fill="#1A1A1A" xmlns="http://www.w3.org/2000/svg" xmlns:xlink="http://www.w3.org/1999/xlink" version="1.1" x="0px" y="0px" viewBox="0 0 100 100" enable-background="new 0 0 100 100" xml:space="preserve"><path d="M25.299,40.992h33.75c0.828,0,1.5-0.671,1.5-1.5s-0.672-1.5-1.5-1.5h-33.75c-0.829,0-1.5,0.671-1.5,1.5  S24.47,40.992,25.299,40.992z M25.299,32.549h33.75c0.828,0,1.5-0.671,1.5-1.5s-0.672-1.5-1.5-1.5h-33.75  c-0.829,0-1.5,0.671-1.5,1.5S24.47,32.549,25.299,32.549z M25.299,48.559h27.75c0.828,0,1.5-0.671,1.5-1.5s-0.672-1.5-1.5-1.5  h-27.75c-0.829,0-1.5,0.671-1.5,1.5S24.47,48.559,25.299,48.559z M43.049,53.127h-17.75c-0.829,0-1.5,0.672-1.5,1.5  s0.671,1.5,1.5,1.5h17.75c0.829,0,1.5-0.672,1.5-1.5S43.877,53.127,43.049,53.127z M38.096,60.693H25.299  c-0.829,0-1.5,0.672-1.5,1.5s0.671,1.5,1.5,1.5h12.797c0.829,0,1.5-0.672,1.5-1.5S38.924,60.693,38.096,60.693z M65.931,82.542  c-0.524,0-0.986,0.27-1.255,0.678h-2.739c-0.269-0.408-0.73-0.678-1.255-0.678c-0.828,0-1.5,0.672-1.5,1.5v0.678  c0,0.828,0.672,1.5,1.5,1.5h5.249c0.828,0,1.5-0.672,1.5-1.5v-0.678C67.431,83.214,66.759,82.542,65.931,82.542z M63.304,54.419  c-6.7,0-11.752,4.771-11.752,11.097c0,3.422,1.465,5.458,2.888,7.423c0.006,0.009,0.012,0.017,0.018,0.025  c1.077,1.49,2.191,3.031,3.1,5.431c0.071,0.229,0.485,1.788,0.609,2.407c0.141,0.701,0.756,1.205,1.471,1.205h0.003l3.663-0.008  l3.671,0.008h0.003c0.715,0,1.33-0.504,1.471-1.205c0.122-0.607,0.534-2.167,0.591-2.357c0.006-0.014,0.013-0.035,0.021-0.058  c0.915-2.407,2.075-4.011,3.099-5.427c0.007-0.008,0.013-0.017,0.019-0.025c1.422-1.964,2.886-4,2.886-7.419  C75.062,59.189,70.01,54.419,63.304,54.419z M69.729,71.199c-0.007,0.009-0.013,0.018-0.019,0.026  c-1.077,1.488-2.411,3.341-3.487,6.183c-0.009,0.025-0.024,0.069-0.032,0.096c-0.056,0.181-0.234,0.841-0.4,1.5l-2.487-0.005  l-2.479,0.005c-0.167-0.66-0.35-1.331-0.422-1.559c-0.003-0.011-0.032-0.094-0.036-0.104c-1.047-2.765-2.382-4.62-3.462-6.114  c-0.007-0.009-0.013-0.018-0.02-0.027c-1.354-1.87-2.332-3.222-2.332-5.684c0-4.616,3.764-8.097,8.758-8.097  c4.989,0,8.752,3.48,8.752,8.097C72.062,67.977,71.083,69.328,69.729,71.199z M68.592,50.085V24.451  c0-0.396-0.156-0.775-0.435-1.056L54.073,9.188c-0.282-0.284-0.665-0.444-1.065-0.444H17.256c-0.829,0-1.5,0.671-1.5,1.5V79  c0,0.828,0.671,1.5,1.5,1.5h27.772c3.583,6.408,10.43,10.756,18.28,10.756c11.545,0,20.937-9.392,20.937-20.936  C84.244,60.604,77.582,52.436,68.592,50.085z M54.508,13.888l8.984,9.063h-8.984V13.888z M43.666,77.5h-24.91V11.744h32.752v12.707  c0,0.829,0.672,1.5,1.5,1.5h12.584v23.563c-0.751-0.082-1.512-0.131-2.284-0.131c-11.545,0-20.938,9.393-20.938,20.938  C42.37,72.846,42.842,75.257,43.666,77.5z M63.308,88.256c-9.891,0-17.938-8.046-17.938-17.936c0-9.891,8.047-17.938,17.938-17.938  S81.244,60.43,81.244,70.32C81.244,80.21,73.198,88.256,63.308,88.256z"></path></svg>