<svg height='100px' width='100px'  fill="#1A1A1A" xmlns="http://www.w3.org/2000/svg" xmlns:xlink="http://www.w3.org/1999/xlink" version="1.1" x="0px" y="0px" viewBox="0 0 113.983 254.008" style="enable-background:new 0 0 113.983 254.008;" xml:space="preserve"><g><path d="M25.018,14.582h-5v3.198l-5.5,0.802v3.167h5.5v45.44c2.224-1.648,4.021-2.603,5-3.061V14.582z"></path><path d="M30.35,130.832l-7.188-31.435c-1.358,3.841-2.323,8.189-2.918,12.988l-0.522,18.038c0.166,3.238,0.441,6.582,0.855,10.028   c0.293,2.436-0.233,4.779-1.341,6.764l-0.884,30.535l3.978,0.933l7.763-46.632C30.157,131.658,30.24,131.264,30.35,130.832z"></path><path d="M18.592,140.689c-0.736-6.137-1.053-11.645-1.053-16.578c0.025-15.268,2.985-24.931,6.21-31.11l8.661,37.87   c-0.14,0.492-0.26,0.992-0.346,1.508L14.442,238.232c-1.225,7.348,3.59,14.324,10.75,15.58c0.749,0.133,1.495,0.195,2.229,0.195   c6.294,0,11.857-4.647,12.952-11.229l15.133-90.898h1.374l15.134,90.898c1.096,6.58,6.658,11.229,12.953,11.229   c0.734,0,1.48-0.063,2.229-0.195c7.16-1.256,11.975-8.232,10.75-15.58L80.322,132.379c-0.086-0.512-0.205-1.01-0.342-1.498   l0.575-2.517L34.88,64.971h-4.435c-0.391,0-0.775,0.032-1.154,0.082c-0.935,0.045-1.88,0.239-2.799,0.61v-0.002   c-1.116,0.441-7.897,3.487-14.326,12.476C5.717,87.106-0.03,101.778,0,124.111c0.002,5.727,0.37,11.967,1.185,18.774   c0.546,4.56,4.325,7.902,8.689,7.902c0.357,0,0.719-0.021,1.084-0.068C15.764,150.113,19.183,145.623,18.592,140.689z"></path><path d="M89.106,90.974c0.035,0.059,0.072,0.113,0.107,0.172c3.568,6.029,7.213,16.09,7.229,32.966   c0.002,4.932-0.316,10.441-1.049,16.582c-0.59,4.934,2.828,9.422,7.637,10.027c0.363,0.045,0.723,0.069,1.08,0.069   c4.365,0,8.146-3.346,8.691-7.906c0.813-6.807,1.18-13.045,1.182-18.772c0.029-22.333-5.717-37.003-12.166-45.972   c-6.426-8.99-13.207-12.037-14.324-12.477c-1.371-0.554-2.799-0.724-4.17-0.568c-0.451-0.072-0.908-0.123-1.377-0.123H42.276   l40.061,55.603L89.106,90.974z"></path><path d="M35.699,26.066c0.082,0.606,0.404,1.193,0.94,1.75c-0.943,2.483-1.464,5.174-1.464,7.988c0,12.428,10.074,22.5,22.5,22.5   c12.427,0,22.501-10.072,22.501-22.5c0-2.814-0.521-5.505-1.464-7.988c0.537-0.557,0.858-1.144,0.94-1.75   c2.618,0.092,4.631-0.331,5.52-1.732C88.154,19.632,80.508,0,57.675,0S27.196,19.632,30.179,24.334   C31.068,25.736,33.081,26.159,35.699,26.066z M57.675,4.094c2.118,0,3.881,1.469,4.36,3.438c2.525-0.352,5.641-0.855,5.641-0.855   s-2.919,2.379-5.815,3.541c-0.652,1.681-2.275,2.876-4.186,2.876c-1.911,0-3.533-1.195-4.186-2.876   c-2.896-1.162-5.814-3.541-5.814-3.541s3.115,0.503,5.64,0.855C53.794,5.563,55.557,4.094,57.675,4.094z M57.675,15.428   c12.151,0,22.001,3.135,22.001,7c0,0.575-0.222,1.133-0.633,1.667c-2.352-3.06-11.023-5.333-21.368-5.333   c-10.344,0-19.016,2.272-21.367,5.333c-0.411-0.534-0.633-1.092-0.633-1.667C35.675,18.563,45.525,15.428,57.675,15.428z"></path></g></svg>