<svg height='100px' width='100px'  fill="#1A1A1A" xmlns="http://www.w3.org/2000/svg" xmlns:xlink="http://www.w3.org/1999/xlink" version="1.1" x="0px" y="0px" viewBox="0 0 253.877 223.929" style="enable-background:new 0 0 253.877 223.929;" xml:space="preserve"><g><path d="M64.547,189.841c0.504,6.557,5.981,11.542,12.45,11.542c0.322,0,0.646-0.013,0.972-0.038   c6.883-0.529,12.034-6.538,11.505-13.422c-0.696-9.05-1.862-17.499-3.348-25.38l-24.99,2.365   C62.662,172.542,63.855,180.849,64.547,189.841z"></path><path d="M19.767,162.851c-3.764,5.33-8.496,10.535-14.433,15.42c-5.331,4.387-6.096,12.265-1.709,17.595   c4.386,5.331,12.264,6.098,17.595,1.71c10.936-8.999,19.57-19.548,25.751-31.327l-17.694,1.674L19.767,162.851z"></path><path d="M3.345,73.57c1.41,1.009,3.037,1.495,4.648,1.495c2.494,0,4.951-1.163,6.513-3.345   C23.794,58.74,33.37,51.002,42.012,46.449c-7.613,9.774-12.609,19.658-17.763,34.37c-0.367,1.377-0.628,2.677-0.802,3.914   l-14.171,69.19l0.615,0.328l19.385,10.338l64.211-6.076l0.956-0.09c0,0-13.652-48.8-33.343-72.709   c1.819-3.321,3.825-6.568,5.917-9.711c-7.329-17.733-7.35-32.385-7.341-33.401c0.047-5.577,4.622-10.114,10.198-10.114l0.116,0.001   c5.58,0.047,10.117,4.647,10.086,10.255c0,0.122,0.077,5.327,1.87,12.937c0.169-0.223,0.347-0.456,0.513-0.676   c1.195-1.326,2.226-2.796,3.101-4.341l6.542,4.54l1.644-7.292l3.936-17.459L80.798,15.937l-0.431-0.371l-2.45,10.297   c-0.312-0.129-0.63-0.247-0.964-0.338c-1.675-0.456-41.426-10.674-75.458,36.883C-1.077,66.001-0.248,70.998,3.345,73.57z"></path><path d="M96.445,43.583c2.166,3.837,5.476,7.081,9.738,9.155c9.773,4.755,21.297,1.794,27.671-6.498l-29.802-32.781   c-3.444,2.161-6.348,5.277-8.258,9.203c-0.343,0.706-0.646,1.421-0.91,2.142l4.834,4.056L96.445,43.583z"></path><path d="M145.521,56.1l2.497-2.27l-10.15-11.165l9.631-10.343c0,0-0.762-8.765-9.583-18.468   c-8.82-9.702-17.474-11.294-17.474-11.294l-10.979,8.429c-0.102,0.031-0.203,0.064-0.304,0.097L99.081,0l-2.497,2.27L145.521,56.1z   "></path><path d="M87.757,108.507l1.911,4.89l3.447-1.348c-1.513-1.293-2.96-2.608-4.339-3.941L87.757,108.507z"></path><path d="M111.598,104.824l10.532-4.117c4.036,6.864,12.554,9.99,20.207,6.998c8.487-3.318,12.678-12.888,9.36-21.375   c-3.318-8.487-12.888-12.678-21.375-9.36c-7.653,2.992-11.792,11.066-10.103,18.847l-10.407,4.068   c0.979,1.401,1.597,3.031,1.778,4.778C111.595,104.718,111.593,104.771,111.598,104.824z M131.869,80.929   c6.301-2.463,13.406,0.648,15.869,6.949s-0.648,13.406-6.949,15.869s-13.406-0.648-15.869-6.949   C122.457,90.497,125.568,83.392,131.869,80.929z"></path><path d="M77.875,42.731c0.024-4.407-3.522-8.006-7.932-8.043c-0.023,0-0.046,0-0.069,0c-4.386,0-7.961,3.537-7.998,7.932   c-0.014,1.673,0.049,41.308,34.524,69.306c1.483,1.204,3.267,1.79,5.039,1.79c2.327,0,4.634-1.011,6.215-2.957   c2.786-3.43,2.263-8.468-1.167-11.253C78.222,76.552,77.876,43.227,77.875,42.731z"></path><path d="M110.985,192.714c0.375,6.294,15.875,4.524,15.875,4.524v-9.441C126.86,187.797,110.61,186.421,110.985,192.714z"></path><path d="M146.527,186.423c-8.75,0.688-15.792,1.276-15.792,1.276v9.637c0,0,24.542,4.17,29.5-0.983   C164.687,191.726,155.277,185.735,146.527,186.423z"></path><path d="M219.36,197.238v-9.441c0,0-16.25-1.377-15.875,4.917C203.86,199.008,219.36,197.238,219.36,197.238z"></path><path d="M239.027,186.423c-8.75,0.688-15.792,1.276-15.792,1.276v9.637c0,0,24.542,4.17,29.5-0.983   C257.187,191.726,247.777,185.735,239.027,186.423z"></path><path d="M175.36,222.501v-9.441c0,0-15.5-1.77-15.875,4.524S175.36,222.501,175.36,222.501z"></path><path d="M179.235,212.962v9.638c0,0,7.042,0.588,15.792,1.276c8.75,0.688,18.16-5.303,13.708-9.93   C203.777,208.792,179.235,212.962,179.235,212.962z"></path></g></svg>