<svg height='100px' width='100px'  fill="#1A1A1A" xmlns="http://www.w3.org/2000/svg" xmlns:xlink="http://www.w3.org/1999/xlink" version="1.1" x="0px" y="0px" viewBox="0 0 101.179 100" enable-background="new 0 0 101.179 100" xml:space="preserve"><path d="M34.911,100c-0.216,0-0.423-0.059-0.602-0.164L10.595,86.287c-0.403-0.231-0.637-0.674-0.599-1.136L16.774,1.11  c0.019-0.257,0.118-0.492,0.273-0.678c0-0.001,0-0.001,0-0.001c0.001,0,0.004-0.004,0.002-0.002c0.001,0,0.001-0.001,0.001-0.001  c0.001-0.001,0.001-0.001,0.001-0.001c0.001-0.001,0.001-0.001,0.001-0.001c0.002-0.002,0.002-0.002,0.002-0.002  c0-0.001,0.001-0.002,0.001-0.002c0.001,0,0.001-0.001,0.001-0.001s0.001-0.001,0.002-0.002l0,0  c0.015-0.018,0.032-0.035,0.048-0.053l0,0c0.001-0.001,0.001-0.001,0.002-0.002c0,0,0-0.001,0.001-0.001l0.001-0.001l0.001-0.001  l0.001-0.001c0-0.001,0.001-0.001,0.001-0.001c0-0.001,0.001-0.001,0.001-0.001c0-0.001,0.001-0.001,0.001-0.001  c0-0.001,0.001-0.001,0.001-0.001c0-0.002,0.003-0.002,0.002-0.002c0.209-0.208,0.494-0.34,0.811-0.349c0.014,0,0.028,0,0.042,0  h71.842c0.609,0,1.121,0.458,1.188,1.063l10.167,90.828c0.035,0.318-0.059,0.636-0.257,0.884c-0.201,0.247-0.491,0.406-0.809,0.439  l-65.061,6.778C35,99.997,34.956,100,34.911,100z M19.388,2.394l16.511,95.104L98.66,90.96L88.746,2.394H19.388z M12.442,84.586  l20.857,11.918L18.401,10.693L12.442,84.586z"></path><path d="M34.914,100c-0.429,0-0.844-0.231-1.059-0.636L22.339,77.611L11.949,86.17c-0.512,0.423-1.264,0.344-1.683-0.161  c-0.421-0.512-0.348-1.265,0.162-1.685l11.522-9.491c0.278-0.229,0.645-0.32,0.996-0.25c0.353,0.07,0.654,0.297,0.822,0.612  L35.97,98.242c0.31,0.585,0.086,1.309-0.498,1.617C35.293,99.955,35.102,100,34.914,100z"></path><path d="M22.71,76.952c-0.623,0-1.147-0.481-1.192-1.112L16.494,4.758c-0.047-0.659,0.45-1.231,1.108-1.277  c0.659-0.048,1.23,0.448,1.277,1.108l5.025,71.082c0.047,0.659-0.45,1.231-1.109,1.278C22.767,76.952,22.738,76.952,22.71,76.952z"></path><path d="M7.799,24.119c-0.328,0-0.646-0.136-0.874-0.38l-6.603-7.065c-0.301-0.321-0.4-0.783-0.259-1.2  c0.142-0.418,0.501-0.725,0.936-0.797l10.134-1.7L16.884,0.69c0.28-0.598,0.993-0.859,1.59-0.576  c0.598,0.279,0.856,0.992,0.576,1.59l-5.993,12.808c-0.014,0.031-0.028,0.063-0.043,0.092l-4.131,8.825  c-0.168,0.36-0.503,0.612-0.896,0.674C7.924,24.114,7.861,24.119,7.799,24.119z M3.591,16.667l3.874,4.146l2.436-5.203L3.591,16.667  z"></path><path d="M16.104,25.509c-0.065,0-0.132-0.004-0.199-0.016l-8.304-1.391c-0.652-0.108-1.091-0.725-0.982-1.377  c0.109-0.652,0.729-1.1,1.377-0.983l8.304,1.391c0.652,0.108,1.091,0.725,0.982,1.377C17.185,25.095,16.678,25.509,16.104,25.509z"></path></svg>