<svg height='100px' width='100px'  fill="#1A1A1A" xmlns="http://www.w3.org/2000/svg" xmlns:xlink="http://www.w3.org/1999/xlink" version="1.1" x="0px" y="0px" viewBox="0 0 67 67" style="enable-background:new 0 0 67 67;" xml:space="preserve"><g><path d="M62,41.7c0,9.7-2.7,17.8-4.4,22c-0.5,1.3-2.4,1.3-3,0c-0.6-1.5-1.3-3.4-1.9-5.6c1.5-1,3-2.3,3.6-4c1.6-4-0.5-8.5-5.4-9.2   c-0.2,0-0.3,0-0.5-0.1c-0.1-1-0.1-2.1-0.1-3.1c0-1.2,0-2.4,0.1-3.6H62C62,39.3,62,40.5,62,41.7z"></path><path d="M53.7,20.2c-3.7-3.7-3.7-6.8-2.4-9.8c1.1-2.7,2-5.4,0.7-8.1c9.7,2.6,12.6,11,6.8,17.9c0.6,0.1,1,0.6,1.1,1.1   c1,3.8,1.6,9,1.9,14.7H50.4c0.3-5.7,1-10.9,1.9-14.7C52.5,20.8,53,20.3,53.7,20.2z"></path><path d="M50.5,46.8c-1.6-0.3-3.3-0.1-4.9-0.5c-5.1-1.4-6.4-8-2.3-11.3c1.5-1.2,3.4-1.6,5.3-2.1c0.4-4.5,1.2-11.3,2.2-13   c-3.8-5-2.1-8.4-0.9-11.5c-1.9-1.2-4-2.2-6.2-2.9c-10.2-3.2-22.1-0.5-29.8,7C6.2,20,3.1,31.8,6.2,42.1c1.5,5,4.4,9.5,8.2,13   c5.3,4.8,12.4,7.6,19.6,7.6c5.6,0,11.2-1.8,15.8-5c1.5-1,4-2.5,4.6-4.3C55.5,50.7,54.3,47.4,50.5,46.8z M12.1,34.4c0-2.7,2.2-5,5-5   s5,2.2,5,5s-2.2,5-5,5S12.1,37.1,12.1,34.4z M24.3,52.3c-2.6,0-4.6-2.1-4.6-4.6s2.1-4.6,4.6-4.6s4.6,2.1,4.6,4.6   S26.8,52.3,24.3,52.3z M23.5,24.9c-3,0-5.5-2.5-5.5-5.5c0-3,2.4-5.5,5.5-5.5c3,0,5.5,2.5,5.5,5.5C29,22.5,26.5,24.9,23.5,24.9z    M40.3,10.8c3.4,0,6.1,2.7,6.1,6.1c0,3.4-2.7,6.1-6.1,6.1c-3.4,0-6.1-2.7-6.1-6.1C34.2,13.5,36.9,10.8,40.3,10.8z M38,55.7   c-2.1,0-3.8-1.7-3.8-3.8c0-2.1,1.7-3.8,3.8-3.8s3.8,1.7,3.8,3.8C41.8,54,40.1,55.7,38,55.7z"></path></g></svg>