<svg height='100px' width='100px'  fill="#1A1A1A" xmlns:x="http://ns.adobe.com/Extensibility/1.0/" xmlns:i="http://ns.adobe.com/AdobeIllustrator/10.0/" xmlns:graph="http://ns.adobe.com/Graphs/1.0/" xmlns="http://www.w3.org/2000/svg" xmlns:xlink="http://www.w3.org/1999/xlink" version="1.1" x="0px" y="0px" viewBox="0 0 100 100" enable-background="new 0 0 100 100" xml:space="preserve"><g><g i:extraneous="self"><path d="M99.312,94.092C92.334,87.115,86.329,75.2,81.679,63.628c0.49-0.658,0.857-1.341,1.057-2.043    c0.318-1.112-0.326-2.272-1.439-2.589c-0.478-0.136-0.953-0.066-1.378,0.114c-5.457-14.505-8.624-27.332-8.683-27.574    c-0.206-0.843-0.91-1.473-1.772-1.582C59.217,28.653,52.059,23.45,51.95,23.37c0.001-0.023,0.013-0.043,0.013-0.066V13.092V2.357    V2.095c0-0.854-0.519-1.623-1.31-1.942c-0.794-0.319-1.7-0.128-2.292,0.488c-1.334,1.384-5.698,4.973-9.819,4.973    c-0.672,0-1.323-0.095-1.935-0.283c-0.932-0.289-1.936,0.106-2.426,0.948c-0.49,0.843-0.334,1.912,0.374,2.579    c0.189,0.178,4.462,4.119,13.219,5.97v8.477c0,0.081,0.037,0.149,0.046,0.227c-1.252,0.867-7.943,5.236-17.286,6.422    c-0.861,0.109-1.566,0.74-1.772,1.582c-0.059,0.242-3.225,13.068-8.682,27.573c-0.425-0.181-0.901-0.251-1.378-0.113    c-1.113,0.317-1.757,1.477-1.439,2.589c0.201,0.703,0.567,1.385,1.057,2.043C13.671,75.2,7.666,87.115,0.688,94.092    C0.22,94.561,0,95.223,0.097,95.88c0.097,0.655,0.499,1.227,1.083,1.54C1.467,97.574,6.14,100,14.52,100    c4.202,0,9.335-0.61,15.315-2.422c0.859-0.26,1.458-1.039,1.486-1.937l0.203-6.352h36.951l0.203,6.352    c0.029,0.898,0.627,1.677,1.486,1.937C76.146,99.39,81.278,100,85.48,100c8.379,0,13.053-2.426,13.34-2.58    c0.584-0.313,0.986-0.886,1.083-1.54C100,95.223,99.78,94.561,99.312,94.092z M76.762,62.694c-1.53,1.191-3.788,2.459-6.271,3.597    c-2.325-1.205-17.466-9.517-18.05-21.79c-0.056-1.157-1.051-2.035-2.192-1.993c-0.089,0.004-0.164,0.048-0.25,0.063    c-0.086-0.015-0.16-0.059-0.25-0.063c-1.138-0.01-2.136,0.838-2.192,1.993C46.974,56.763,31.864,65.07,29.516,66.287    c-2.394-1.096-4.709-2.36-6.283-3.582c3.958-10.199,6.797-19.766,8.322-25.31c3.021,1.145,9.917,3.345,18.37,3.345    c5.66,0,12.011-1.012,18.348-3.968C69.753,42.203,72.658,52.117,76.762,62.694z M50,27.117c1.72,1.167,7.364,4.669,15.334,6.374    c-13.26,5.599-26.72,1.939-31.676,0.197C42.156,32.076,48.209,28.332,50,27.117z M5.841,94.689    c6.222-7.222,11.552-17.697,15.796-28c1.94,1.374,4.222,2.563,6.307,3.503l-0.762,23.791C16.849,96.827,9.513,95.712,5.841,94.689    z M31.659,85.099l0.423-13.22c0.663,0.243,1.205,0.431,1.545,0.544c0.22,0.074,0.444,0.108,0.663,0.108    c0.878,0,1.695-0.555,1.987-1.433c0.366-1.097-0.227-2.284-1.325-2.65c-0.152-0.051-0.314-0.109-0.471-0.163    C38.968,65.529,46.572,59.934,50,52.018c3.428,7.915,11.032,13.511,15.519,16.267c-0.157,0.054-0.315,0.111-0.471,0.164    c-1.097,0.366-1.69,1.553-1.324,2.65c0.293,0.878,1.109,1.433,1.986,1.433c0.219,0,0.443-0.035,0.663-0.108    c0.339-0.113,0.882-0.301,1.545-0.544l0.423,13.22H31.659z M72.817,93.984l-0.762-23.791c2.085-0.94,4.367-2.13,6.307-3.503    c4.244,10.303,9.574,20.777,15.796,27.998C90.482,95.716,83.144,96.825,72.817,93.984z"></path></g></g></svg>