<svg height='100px' width='100px'  fill="#1A1A1A" xmlns:x="http://ns.adobe.com/Extensibility/1.0/" xmlns:i="http://ns.adobe.com/AdobeIllustrator/10.0/" xmlns:graph="http://ns.adobe.com/Graphs/1.0/" xmlns="http://www.w3.org/2000/svg" xmlns:xlink="http://www.w3.org/1999/xlink" version="1.1" x="0px" y="0px" viewBox="0 0 100 100" style="enable-background:new 0 0 100 100;" xml:space="preserve"><g><g i:extraneous="self"><g><path d="M50,29.7c-11.2,0-20.3,9.1-20.3,20.3S38.8,70.2,50,70.2S70.3,61.2,70.3,50S61.2,29.7,50,29.7z M50,60.9     c-6,0-10.9-4.9-10.9-10.9S44,39.1,50,39.1S60.9,44,60.9,50S56,60.9,50,60.9z"></path><path d="M97.5,56.6V43.4l-10.9-2.7c-0.9-3.5-2.3-6.9-4.1-10l5.8-9.6l-9.4-9.4l-9.6,5.8c-3.1-1.8-6.4-3.2-10-4.1L56.6,2.5H43.4     l-2.7,10.9c-3.5,0.9-6.9,2.3-10,4.1l-9.6-5.8l-9.4,9.4l5.8,9.6c-1.8,3.1-3.2,6.4-4.1,10L2.5,43.4v13.2l10.9,2.7     c0.9,3.5,2.3,6.9,4.1,10l-5.8,9.6l9.4,9.4l9.6-5.8c3.1,1.8,6.4,3.2,10,4.1l2.7,10.9h13.2l2.7-10.9c3.6-0.9,6.9-2.3,10-4.1     l9.6,5.8l9.4-9.4l-5.8-9.6c1.8-3.1,3.2-6.4,4.1-10L97.5,56.6z M50,78.5c-15.7,0-28.5-12.8-28.5-28.5S34.3,21.5,50,21.5     S78.5,34.3,78.5,50S65.7,78.5,50,78.5z"></path></g></g></g></svg>