<svg height='100px' width='100px'  fill="#1A1A1A" xmlns:x="http://ns.adobe.com/Extensibility/1.0/" xmlns:i="http://ns.adobe.com/AdobeIllustrator/10.0/" xmlns:graph="http://ns.adobe.com/Graphs/1.0/" xmlns="http://www.w3.org/2000/svg" xmlns:xlink="http://www.w3.org/1999/xlink" version="1.1" x="0px" y="0px" viewBox="-949 951 100 100" style="enable-background:new -949 951 100 100;" xml:space="preserve"><g><g i:extraneous="self"><g><g><g><path d="M-859.5,964.5h-79.1c-5.2,0-9.5,4.2-9.5,9.5v54.1c0,5.2,4.2,9.5,9.5,9.5h79.1c5.2,0,9.5-4.2,9.5-9.5V974       C-850,968.7-854.2,964.5-859.5,964.5z M-853.3,1028c0,3.4-2.7,6.1-6.1,6.1h-79.1c-3.4,0-6.1-2.7-6.1-6.1V974       c0-3.4,2.7-6.1,6.1-6.1h79.1c3.4,0,6.1,2.7,6.1,6.1V1028z"></path></g></g><g><path d="M-895.5,1000l-7.6-1.5c0,0-0.6-6.8-0.6-7.8c0-0.4-0.1-0.8-0.3-1.3c-1.5-0.4-2.7-1.5-3.3-2.9c-0.3-0.1-0.5-0.1-0.7-0.1      c-0.7,0-8.8,0.3-8.8,0.3c-0.8-0.1-1.5,0.4-1.7,1.1l-2.1,7.9c-0.3,0.9-0.2,1.4,0.8,1.5c1,0.1,1.3-0.3,1.5-1l2.1-6.7l4,0      c-0.7,2-2.1,5.8-3.1,7.3c-0.9,1.3-2.8,3.1-3.3,4.6l-6.5,5.9c-0.3,0.3-0.7,0.3-1,0l-7.1-5.5c-1.1-1-2-1.3-2.9-0.3      c-0.9,1-0.5,2.3,0.5,3.3l8.1,7.5c0.5,0.5,1.2,0.7,1.8,0.7c0.6,0,1.2-0.2,1.7-0.6l8.6-7l7.9,6.8c0.2,0.2,0.4,0.4,0.5,0.7      l4.5,10.2c0.5,0.9,1.4,2.1,2.7,1.6c1.4-0.5,1.3-1.5,0.8-3.1l-3.7-11.5c-0.1-0.3-0.3-0.5-0.6-0.8l-6.9-6.4c1.6-2,3.3-4.4,4-5.4      l0.4,2.4c0.1,0.7,0.7,1.2,1.4,1.3c0,0,8.5,0.9,8.6,0.9c0.8,0,1.1-0.2,1.2-1C-894.4,1000.6-894.6,1000.1-895.5,1000z"></path></g><g><circle cx="-902.4" cy="984.2" r="4.4"></circle></g><g><path d="M-864.4,976.8h-24.8c-0.8,0-1.4,0.6-1.4,1.4v20.1h8.8v-3.5c0-0.3,0.3-0.4,0.5-0.2l6.1,6.1c0.1,0.1,0.1,0.3,0,0.4      l-6.1,6.1c-0.2,0.2-0.5,0-0.5-0.2v-3.5h-8.8v20.1c0,0.8,0.6,1.4,1.4,1.4h24.8c0.8,0,1.4-0.6,1.4-1.4v-45.5      C-863,977.5-863.6,976.8-864.4,976.8z"></path></g></g></g></g></svg>