<svg xmlns="http://www.w3.org/2000/svg" xmlns:xlink="http://www.w3.org/1999/xlink" width="100" height="100" viewBox="0 0 100 100"><g transform="translate(50 50) scale(-0.69 0.69) rotate(0) translate(-50 -50)" style="fill:#1A1A1A"><svg fill="#1A1A1A" xmlns="http://www.w3.org/2000/svg" xmlns:xlink="http://www.w3.org/1999/xlink" version="1.1" preserveAspectRatio="none" x="0px" y="0px" viewBox="0 0 100 100"><defs><g id="b"><path fill="#1A1A1A" stroke="none" d=" M 24.95 28.95 Q 24.243359375 29.8392578125 23.6 30.75 L 70.45 77.7 Q 70.9033203125 77.333203125 71.35 76.95 L 72.45 75.95 73.85 74.5 Q 75.5029296875 72.7701171875 77.1 70.65 L 29.8 23.8 Q 28.62578125 24.8220703125 27.4 26.1 26.1 27.5 25.55 28.2 L 24.95 28.95 M 70.5 23 L 70.55 23.05 70.8 23.25 70.85 23.3 70.9 23.35 71.2 23.6 73.85 26.1 Q 83.85 36.5 83.85 50.3 83.85 60.4 78.4 68.9 L 79.85 70.35 78.4 68.9 78.1 69.35 82.35 73.85 78.1 69.35 Q 77.614453125 70.0203125 77.1 70.65 L 80.1 73.6 77.1 70.65 Q 75.5029296875 72.7701171875 73.85 74.5 L 72.45 75.95 77.65 81.1 78.95 79.85 Q 91.05 67.5 91.05 50.45 91.05 33.35 78.95 21.1 67.05 8.9 50.2 8.9 33.35 8.9 21.45 21.1 9.15 33.65 9.15 50.45 9.15 67.25 21.45 79.85 33.2 91.8 50.2 91.8 66.35 91.8 77.65 81.1 L 72.45 75.95 71.35 76.95 73.85 79.6 71.35 76.95 Q 70.9033203125 77.333203125 70.45 77.7 L 71.5 78.75 70.45 77.7 Q 61.94609375 84.5 50.65 84.5 37.05 84.5 27.4 74.5 L 27.2 74.3 27.15 74.25 27 74.1 26.9 73.95 24.8 71.5 24.65 71.35 24.6 71.2 24.55 71.15 24.4 71 24.35 70.95 24.3 70.85 24.25 70.8 24.1 70.6 24.05 70.5 24 70.45 23.95 70.35 23.6 69.9 23.55 69.8 23.3 69.45 23.45 69.6 21.85 67.1 Q 17.6 59.65 17.6 50.3 17.6 39.3630859375 23.6 30.75 24.243359375 29.8392578125 24.95 28.95 L 23.75 27.75 24.95 28.95 25.55 28.2 24.25 26.85 25.55 28.2 Q 26.1 27.5 27.4 26.1 28.62578125 24.8220703125 29.8 23.8 L 29 23 29.8 23.8 Q 30.8974609375 22.867578125 31.95 22.15 L 32.8 21.5 Q 40.7 16.1 50.65 16.1 L 51.9 16.1 52.6 16.15 53.3 16.2 54.15 16.3 Q 63.25 17.2 70.5 23 M 27.4 74.5 L 27.25 74.3 27.2 74.3 27.4 74.5 M 24.9 71.6 L 24.8 71.5 26.9 73.95 26.7 73.7 24.9 71.6 M 23.85 70.2 L 23.75 70.05 23.7 70 23.85 70.2 M 23.95 70.35 L 23.9 70.25 23.85 70.2 23.7 70 23.6 69.9 23.95 70.35 M 53.3 16.2 L 53.5 16.25 54.15 16.3 53.3 16.2 M 51.9 16.1 L 52.4 16.15 52.6 16.15 51.9 16.1 M 70.75 23.25 L 70.8 23.25 70.55 23.05 70.75 23.25 M 70.8 23.3 L 70.85 23.3 70.8 23.25 70.8 23.3 Z"></path></g><path id="a" stroke="#1A1A1A" stroke-width="1" stroke-linejoin="round" stroke-linecap="round" fill="none" d=" M 54.15 16.3 Q 63.25 17.2 70.5 23 L 70.55 23.05 70.8 23.25 70.85 23.3 70.9 23.35 71.2 23.6 73.85 26.1 Q 83.85 36.5 83.85 50.3 83.85 60.4 78.4 68.9 L 79.85 70.35 M 70.75 23.25 L 70.8 23.3 70.8 23.25 70.75 23.25 70.55 23.05 M 70.8 23.3 L 70.85 23.3 M 51.9 16.1 L 52.4 16.15 52.6 16.15 51.9 16.1 50.65 16.1 Q 40.7 16.1 32.8 21.5 L 31.95 22.15 Q 30.8974609375 22.867578125 29.8 23.8 L 77.125 70.65 Q 77.614453125 70.0203125 78.1 69.35 L 78.4 68.9 M 53.3 16.2 L 53.5 16.25 54.15 16.3 53.3 16.2 52.6 16.15 M 91.05 50.45 Q 91.05 67.5 78.95 79.85 L 77.65 81.1 Q 66.35 91.8 50.2 91.8 33.2 91.8 21.45 79.85 9.15 67.25 9.15 50.45 9.15 33.65 21.45 21.1 33.35 8.9 50.2 8.9 67.05 8.9 78.95 21.1 91.05 33.35 91.05 50.45 Z M 93.4 50.3 Q 93.4 68.25 80.75 80.9 68.05 93.6 50.15 93.6 32.2 93.6 19.55 80.9 6.85 68.2 6.85 50.3 6.85 32.5 19.55 19.7 32.2 7.05 50.15 7.05 68.05 7.05 80.75 19.7 93.4 32.45 93.4 50.3 Z M 29 23 L 29.8 23.8 Q 28.62578125 24.8220703125 27.4 26.1 26.1 27.5 25.55 28.2 L 24.95 28.95 Q 24.243359375 29.8392578125 23.6 30.75 L 70.45 77.7 Q 70.9033203125 77.333203125 71.35 76.95 L 72.45 75.95 73.85 74.5 Q 75.5029296875 72.7701171875 77.125 70.65 L 80.1 73.6 M 24.25 26.85 L 25.55 28.2 M 23.75 27.75 L 24.95 28.95 M 23.45 69.6 L 23.3 69.45 23.55 69.8 23.45 69.6 21.85 67.1 Q 17.6 59.65 17.6 50.3 17.6 39.3630859375 23.6 30.75 M 23.55 69.8 L 23.55 69.75 23.45 69.6 M 23.6 69.9 L 23.55 69.8 23.75 70.05 23.85 70.2 23.9 70.25 23.95 70.35 24 70.45 24.05 70.5 24.1 70.6 24.3 70.85 24.4 71 24.55 71.15 24.6 71.2 24.9 71.6 26.7 73.7 27.1 74.15 27.2 74.3 27.25 74.3 27.4 74.5 Q 37.05 84.5 50.65 84.5 61.94609375 84.5 70.45 77.7 L 71.5 78.75 M 23.85 70.2 L 23.7 70 23.6 69.9 23.95 70.35 M 23.55 69.8 L 23.7 70 23.75 70.05 M 24.4 71 L 24.35 70.95 24.3 70.85 24.25 70.8 24.1 70.6 M 24.8 71.5 L 24.6 71.2 24.65 71.35 24.8 71.5 24.9 71.6 M 27.2 74.3 L 27.15 74.25 27 74.1 26.9 73.95 24.8 71.5 M 26.9 73.95 L 26.7 73.7 M 27.4 74.5 L 27.2 74.3 M 27.15 74.25 L 26.9 73.95 M 71.35 76.95 L 73.85 79.6 M 72.45 75.95 L 77.65 81.1 M 78.1 69.35 L 82.35 73.85"></path></defs><g transform="matrix( 1, 0, 0, 1, 0,0) "><use xlink:href="#b"></use><use xlink:href="#a"></use></g></svg></g></svg>