<svg height='100px' width='100px'  fill="#1A1A1A" xmlns="http://www.w3.org/2000/svg" xmlns:xlink="http://www.w3.org/1999/xlink" version="1.1" x="0px" y="0px" viewBox="0 0 100 100" enable-background="new 0 0 100 100" xml:space="preserve"><path fill-rule="evenodd" clip-rule="evenodd" d="M23.952,24.848l0.896-0.896c3.713-3.711,9.73-3.711,13.443,0L50,35.66  l11.708-11.709c3.713-3.711,9.734-3.711,13.443,0l0.896,0.896c3.713,3.713,3.713,9.732,0,13.445L64.34,50.001l11.708,11.707  c3.713,3.712,3.713,9.731,0,13.444l-0.896,0.896c-3.709,3.712-9.73,3.712-13.443,0L50,64.341L38.292,76.048  c-3.713,3.712-9.73,3.712-13.443,0l-0.896-0.896c-3.713-3.713-3.713-9.732,0-13.444L35.66,50.001L23.952,38.293  C20.239,34.58,20.239,28.561,23.952,24.848z M50,100C22.386,100,0,77.614,0,50.001C0,22.387,22.386,0,50,0s50,22.387,50,50.001  C100,77.614,77.614,100,50,100z"></path></svg>