<svg height='100px' width='100px'  fill="#1A1A1A" xmlns="http://www.w3.org/2000/svg" xmlns:xlink="http://www.w3.org/1999/xlink" version="1.1" x="0px" y="0px" viewBox="0 0 96 96" enable-background="new 0 0 96 96" xml:space="preserve"><g><path d="M55.582,35.872c-5.056,1.114-10.11,2.854-15.165,3.97c0,2.257,0,4.514,0,6.771c5.055-1.115,10.109-2.855,15.165-3.971   C55.582,40.385,55.582,38.128,55.582,35.872z"></path><path d="M48,8C25.909,8,8,25.909,8,48c0,22.092,17.909,40,40,40c22.092,0,40-17.908,40-40C88,25.909,70.092,8,48,8z M64.204,66.514   c-10.804,0-21.605,6.102-32.408,6.102c0-1.638,0-3.277,0-4.917c0.015,0,0.029,0,0.044,0c-0.039-0.666-0.044-1.388-0.044-2.083   c0-11.385,0-22.769,0-34.153c0-1.672,2.452-2.43,4.881-2.808c7.358-1.063,14.718-4.106,22.076-5.269c0,0.677,0,1.353,0,2.03v0   c-7.358,1.163-14.718,4.206-22.076,5.27c-1.611,0.23-2.566,0.657-2.852,0.876c0,0.231,0,0.463,0,0.694   c0.287,0.175,1.241,0.498,2.852,0.267c9.175-1.327,18.351-5.728,27.526-5.728C64.204,40.034,64.204,53.272,64.204,66.514z"></path></g></svg>