<svg height='100px' width='100px'  fill="#1A1A1A" xmlns="http://www.w3.org/2000/svg" xmlns:xlink="http://www.w3.org/1999/xlink" version="1.1" x="0px" y="0px" viewBox="0 0 90 90" enable-background="new 0 0 90 90" xml:space="preserve"><path d="M71.3,15.5H18.7c-0.9,0-1.8,0.5-2.2,1.3c-0.4,0.8-0.4,1.8,0.2,2.6L36,46.6c0,0,0,0,0,0c0.7,0.9,1.1,2.1,1.1,3.3V72  c0,0.7,0.3,1.3,0.7,1.7c0.5,0.5,1.1,0.7,1.7,0.7c0.3,0,0.7-0.1,1-0.2l10.8-4.1c1-0.3,1.6-1.2,1.6-2.3v-18c0-1.2,0.4-2.3,1.1-3.3  c0,0,0,0,0,0l19.3-27.1c0.5-0.8,0.6-1.8,0.2-2.6C73.1,16,72.2,15.5,71.3,15.5z M51.6,44.8c-1.1,1.5-1.7,3.2-1.7,5v17.6l-9.9,3.8  V49.9c0-1.8-0.6-3.6-1.7-5L19.7,18.5h50.6L51.6,44.8z"></path><line x1="22.6" y1="24.7" x2="48.5" y2="24.7"></line><path d="M48.5,26.2H22.6c-0.8,0-1.5-0.7-1.5-1.5s0.7-1.5,1.5-1.5h25.9c0.8,0,1.5,0.7,1.5,1.5S49.3,26.2,48.5,26.2z"></path><line x1="53.4" y1="24.7" x2="62.3" y2="24.7"></line><path d="M62.3,26.2h-8.9c-0.8,0-1.5-0.7-1.5-1.5s0.7-1.5,1.5-1.5h8.9c0.8,0,1.5,0.7,1.5,1.5S63.1,26.2,62.3,26.2z"></path></svg>