<svg height='100px' width='100px'  fill="#1A1A1A" xmlns="http://www.w3.org/2000/svg" xmlns:cc="http://creativecommons.org/ns#" xmlns:dc="http://purl.org/dc/elements/1.1/" xmlns:rdf="http://www.w3.org/1999/02/22-rdf-syntax-ns#" version="1.1" viewBox="0 0 26.458 26.458" x="0px" y="0px"><g transform="translate(0 -270.54)"><path transform="matrix(.26458 0 0 .26458 0 270.54)" d="m17.514 4.5273v18.188 15.104c1.3101-1.4889 3.2201-2.5391 5.5137-2.5391h38.768v-20.625h-7.1445a1.5002 1.5002 0 0 1-1.5-1.498l-0.035157-8.6289h-35.602zm38.607 2.627 0.021484 4.4961h3.8457l-3.8672-4.4961zm-33.094 1.4609h26.154v2.998h-26.154v-2.998zm0 5.3301h26.154v2.998h-26.154v-2.998zm0 5.3379h33.248v2.9961h-33.248v-2.9961zm-13.619 4.9316c-2.7594 0-5.2559 2.834-5.2559 6.7461v48.766l6.125-20.992 4.2324-14.508v-20.012h-5.1016zm55.393 0v11.064h17.422v-4.3184c0-3.9121-2.4964-6.7461-5.2559-6.7461h-12.166zm-41.773 0.39844h33.248v3.0039h-33.248v-3.0039zm0 5.3359h33.248v2.998h-33.248v-2.998zm0 8.334c-1.4492 0-2.3856 0.53246-3.2559 1.5215-0.87028 0.98899-1.5724 2.4817-2.0586 4.1484l-13.619 46.691c-0.34465 1.1815 0.10186 2.2273 1.1582 3.1953 1.0564 0.96798 2.7071 1.6309 4.1562 1.6309h67.559c1.0463 0 1.8279-0.27648 2.5098-0.80078a1.5008 1.5008 0 0 1 0.082032-0.070313c0.040063-0.031748 0.075738-0.0695 0.11523-0.10352 0.15392-0.13327 0.30629-0.278 0.45312-0.4375 0.047736-0.052158 0.097741-0.099494 0.14453-0.1543 0.03893-0.045354 0.073117-0.10352 0.11133-0.15039 0.18214-0.22658 0.35962-0.46792 0.52539-0.73438 0.067389-0.10885 0.12877-0.2308 0.19336-0.3457 0.12707-0.225 0.25138-0.45317 0.36719-0.69922 0.069354-0.14797 0.13207-0.30635 0.19727-0.46094 0.098305-0.23271 0.19469-0.46647 0.2832-0.71289 0.1175-0.32591 0.23199-0.65524 0.33203-0.99805l13.621-46.691c0.34465-1.1815-0.095966-2.2273-1.1523-3.1953-1.0564-0.96801-2.715-1.6328-4.1641-1.6328h-67.559z" color="#000000" color-rendering="auto" dominant-baseline="auto" image-rendering="auto" shape-rendering="auto" solid-color="#000000" style="font-feature-settings:normal;font-variant-alternates:normal;font-variant-caps:normal;font-variant-ligatures:normal;font-variant-numeric:normal;font-variant-position:normal;isolation:auto;mix-blend-mode:normal;paint-order:stroke fill markers;shape-padding:0;text-decoration-color:#000000;text-decoration-line:none;text-decoration-style:solid;text-indent:0;text-orientation:mixed;text-transform:none;white-space:normal;"></path></g></svg>