<svg height='100px' width='100px'  fill="#1A1A1A" xmlns="http://www.w3.org/2000/svg" viewBox="0 0 24 24" x="0px" y="0px"><title>text size decrease</title><path d="M12,19H11V5h3V6a1,1,0,0,0,2,0V4a1,1,0,0,0-1-1H5A1,1,0,0,0,4,4V6A1,1,0,0,0,6,6V5H9V19H8a1,1,0,0,0,0,2h4a1,1,0,0,0,0-2Zm7.707-5.707a.99962.99962,0,0,0-1.41406,0l-.293.293V10a1,1,0,0,0-2,0v3.58594l-.293-.293A.99989.99989,0,0,0,14.293,14.707l1.99969,1.9997a1.00354,1.00354,0,0,0,1.41468,0L19.707,14.707A.99962.99962,0,0,0,19.707,13.293Z"></path></svg>