<svg xmlns="http://www.w3.org/2000/svg" xmlns:xlink="http://www.w3.org/1999/xlink" width="100" height="100" viewBox="0 0 100 100"><g transform="translate(50 50) scale(-0.69 0.69) rotate(0) translate(-50 -50)" style="fill:#1A1A1A"><svg fill="#1A1A1A" xmlns="http://www.w3.org/2000/svg" data-name="Layer 1" viewBox="0 0 512 512" x="0px" y="0px"><defs><style>.cls-1{isolation:isolate;}</style></defs><title>media player</title><g data-name="RESIZE 1" class="cls-1"><g data-name="RESIZE 1"><path d="M229.52,203a26.38,26.38,0,0,0-7.76-18.72L90.41,53h42a26.48,26.48,0,0,0,0-53H26.48A26.48,26.48,0,0,0,0,26.48V132.41a26.48,26.48,0,0,0,53,0v-42L184.31,221.77A26.49,26.49,0,0,0,229.52,203ZM512,485.52V379.59a26.48,26.48,0,0,0-53,0v42L327.69,290.24a26.48,26.48,0,1,0-37.45,37.45L421.58,459h-42a26.48,26.48,0,1,0,0,53H485.52A26.48,26.48,0,0,0,512,485.52Z"></path></g></g></svg></g></svg>