<svg height='100px' width='100px'  fill="#1A1A1A" xmlns="http://www.w3.org/2000/svg" data-name="Layer 1" viewBox="0 0 100 100" x="0px" y="0px"><title>help icon</title><path d="M50,3.5A46.5,46.5,0,1,0,96.5,50,46.5,46.5,0,0,0,50,3.5Zm5.38,75.81a7.21,7.21,0,0,1-5.29,2.2,7.07,7.07,0,0,1-5.25-2.2A7.28,7.28,0,0,1,42.68,74a7.35,7.35,0,0,1,7.4-7.4,7.29,7.29,0,0,1,5.29,2.15A7.08,7.08,0,0,1,57.57,74,7.21,7.21,0,0,1,55.38,79.31Zm12.52-40A16.47,16.47,0,0,1,66.27,43a20,20,0,0,1-2.41,3.23q-1.38,1.51-2.93,3t-2.45,2.5a11,11,0,0,0-1.55,2.19,9,9,0,0,0-.82,2.28A13.21,13.21,0,0,0,55.85,59v1.38H44.58V57.49A16.1,16.1,0,0,1,45,53.66a13.75,13.75,0,0,1,1.33-3.4A17,17,0,0,1,48.75,47a41.89,41.89,0,0,1,3.74-3.53,26.7,26.7,0,0,0,3.62-3.79,6.83,6.83,0,0,0,1.29-4.22,6.34,6.34,0,0,0-1.94-4.56,7.07,7.07,0,0,0-5.29-2,8.4,8.4,0,0,0-5.85,2.24,9.53,9.53,0,0,0-1.85,2.32,10.59,10.59,0,0,0-1.08,2.67L31.49,32a18.92,18.92,0,0,1,2.19-4.82,18.51,18.51,0,0,1,9.17-7.49,19.11,19.11,0,0,1,7-1.21,22.1,22.1,0,0,1,7.57,1.25,17.87,17.87,0,0,1,5.9,3.44,15.63,15.63,0,0,1,3.83,5.21,16.23,16.23,0,0,1,.78,10.93Z"></path></svg>