<svg height='100px' width='100px'  fill="#1A1A1A" xmlns="http://www.w3.org/2000/svg" xmlns:xlink="http://www.w3.org/1999/xlink" viewBox="0 0 60 60" version="1.1" x="0px" y="0px"><title>024 - Stop</title><desc>Created with Sketch.</desc><g stroke="none" stroke-width="1" fill="none" fill-rule="evenodd" stroke-linecap="round" stroke-linejoin="round"><g transform="translate(1.000000, 1.000000)" stroke="#1A1A1A" stroke-width="2"><path d="M25,15.66454 L25,29"></path><path d="M30,13.21614 L30,27"></path><path d="M35,19.92261 L35,30"></path><path d="M20,32 L20,15.65964 C19.9875806,14.9522704 20.2628951,14.2701712 20.7628667,13.7696171 C21.2628383,13.269063 21.9446164,12.9929543 22.652,13.00455 C23.9731733,13.0808341 25.0042241,14.176633 25,15.5 L25,10.65964 C24.9875806,9.95227039 25.2628951,9.27017122 25.7628667,8.7696171 C26.2628383,8.26906298 26.9446164,7.99295435 27.652,8.00455 C28.9731733,8.08083414 30.0042241,9.17663297 30,10.5 L30,13.5 C30,12.606836 30.4764973,11.7815184 31.25,11.3349364 C32.0235027,10.8883544 32.9764973,10.8883544 33.75,11.3349364 C34.5235027,11.7815184 35,12.606836 35,13.5 L35,19.5 C35,18.606836 35.4764973,17.7815184 36.25,17.3349364 C37.0235027,16.8883544 37.9764973,16.8883544 38.75,17.3349364 C39.5235027,17.7815184 40,18.606836 40,19.5 L40,38.47079 C40,38.47079 40,44.51199 37.44515,47.90142 L37.44374,47.90328 C36.9200662,48.5941431 36.103156,48.9999984 35.23625,49 L24.51657,49 C23.3628974,49.0102068 22.2425681,48.6133051 21.35262,47.8791 C18.60216,45.55994 17.89424,42.11122 16.62045,38.47078 C15.91361,36.45245 13.71645,30.60186 11.80882,27.83411 C11.0985897,26.8213359 11.2868967,25.4326412 12.2411852,24.6455759 C13.1954738,23.8585105 14.5946258,23.9379221 15.45373,24.82791 C17.4785432,26.8548676 19.0309061,29.3038393 20,32"></path><path d="M41.404,0.58237 L57.27124,16.26587 C57.6484866,16.6387546 57.8621547,17.1462272 57.86524,17.67665 L57.99516,39.9864 C57.998249,40.5168236 57.7905016,41.0267495 57.41762,41.404 L41.73413,57.27124 C41.3612454,57.6484866 40.8537728,57.8621547 40.32335,57.86524 L18.0136,57.99516 C17.4831764,57.998249 16.9732505,57.7905016 16.596,57.41762 L0.72876,41.73413 C0.351513412,41.3612454 0.137845293,40.8537728 0.13476,40.32335 L0.00482,18.0136 C0.00173104389,17.4831764 0.209478367,16.9732505 0.58236,16.596 L16.26587,0.72876 C16.6387546,0.351513412 17.1462272,0.137845293 17.67665,0.13476 L39.9864,0.00482 C40.516825,0.00173370316 41.0267511,0.209484705 41.404,0.58237 Z"></path><path d="M4.12026,39.06046 L4.0049,19.22966 C4.00335554,18.964414 4.10725634,18.709421 4.29374,18.52079 L18.23693,4.41717 C18.4233691,4.22858707 18.6770795,4.12178001 18.94226,4.12024 L38.77733,4.0049 C39.042509,4.00335816 39.2974421,4.10720836 39.48606,4.29361 L53.59244,18.23408 C53.7811061,18.4205279 53.8879674,18.6742942 53.88951,18.93954 L54.00487,38.77035 C54.0064145,39.035596 53.9025137,39.290589 53.71603,39.47922 L39.77283,53.58283 C39.5863909,53.7714129 39.3326805,53.87822 39.0675,53.87976 L19.23243,53.9951 C18.967251,53.9966418 18.7123179,53.8927916 18.5237,53.70639 L4.41733,39.76592 C4.2286639,39.5794721 4.12180263,39.3257058 4.12026,39.06046 Z"></path></g></g></svg>