<svg height='100px' width='100px'  fill="#1A1A1A" xmlns="http://www.w3.org/2000/svg" xmlns:xlink="http://www.w3.org/1999/xlink" version="1.1" x="0px" y="0px" viewBox="0 0 64 64" style="enable-background:new 0 0 64 64;" xml:space="preserve"><path d="M54,8H10c-1.103,0-2,0.897-2,2v44c0,1.103,0.897,2,2,2h44c1.103,0,2-0.897,2-2V10C56,8.897,55.103,8,54,8z M50.764,10l-4,2  H17.236l-4-2H50.764z M46,14v32H18V14H46z M10,10.618l6,3v32.968l-6,6V10.618z M11.414,54l6-6h29.172l6,6H11.414z M48,46.586V13.618  l6-3l0.001,41.969L48,46.586z"></path></svg>