<svg height='100px' width='100px'  fill="#1A1A1A" xmlns="http://www.w3.org/2000/svg" xmlns:xlink="http://www.w3.org/1999/xlink" version="1.1" x="0px" y="0px" viewBox="0 0 64 64" style="enable-background:new 0 0 64 64;" xml:space="preserve"><title>Forestranger-job-avatar-profession-occupation-ranger-forest-jungle</title><path d="M53.7,43l-2.6,3.4l-6.4-5.1l1.9-3.8l-2.4-0.8l-5,9L32,38.4l-7.2,7.2l-5-9l-2.4,0.8l1.9,3.8l-6.4,5.1L10.3,43  c-0.2,0.6-0.3,1.2-0.3,1.9V60h8v-6h2v6h24v-6h2v6h8V44.9C54,44.3,53.9,43.6,53.7,43z M28,53.6l-3,1.5l-3-1.5V48h6V53.6z M33,58h-2  v-2h2V58z M33,54h-2v-2h2V54z M33,50h-2v-2h2V50z M33,46h-2v-2h2V46z M46,50H36v-2h10V50z"></path><polygon points="26,52.4 26,50 24,50 24,52.4 25,52.9 "></polygon><path d="M16.7,40.7L15.4,38l-0.5,0.2c-1.5,0.5-2.8,1.4-3.7,2.8l2,2.6L16.7,40.7z"></path><path d="M24.9,35.1l-3.2,1l3.5,6.3l4.7-4.7c-1.4-0.3-2.7-0.9-3.8-1.7L24.9,35.1z"></path><path d="M37.9,36c-1.1,0.8-2.4,1.4-3.8,1.7l4.7,4.7l3.5-6.3l-3.2-1L37.9,36z"></path><path d="M44,24v-1.5c0-0.6-0.4-1-0.9-1.2L42,21.1V18H22v3.1l-1.1,0.3C20.4,21.5,20,22,20,22.6V24c0,0.5,0.3,0.9,0.7,1.1l1.3,0.7v2.2  c0,1.6,0.8,3.1,2.1,4l3.2,2.4c2.8,2,6.6,2,9.4,0l3.2-2.4c1.3-0.9,2.1-2.4,2.1-4v-2.2l1.3-0.7C43.7,24.9,44,24.5,44,24z"></path><path d="M15,16h34c0.6,0,1-0.4,1-1s-0.4-1-1-1H15c-0.6,0-1,0.4-1,1S14.4,16,15,16z"></path><path d="M48.6,38l-1.3,2.7l3.6,2.9l2-2.6c-0.9-1.3-2.2-2.3-3.7-2.8L48.6,38z"></path><polygon points="41.6,10 22.4,10 22.1,12 41.9,12 "></polygon><path d="M41.2,6.9c-0.1-0.5-0.5-0.9-1-0.9h-4.6l-1.9-1.4c-1.1-0.8-2.5-0.8-3.6,0L28.3,6h-4.6c-0.5,0-0.9,0.4-1,0.9L22.6,8h18.7  L41.2,6.9z"></path></svg>