<svg height='100px' width='100px'  fill="#1A1A1A" xmlns="http://www.w3.org/2000/svg" viewBox="0 0 64 64" x="0px" y="0px"><g data-name="open book-pen-lamp-idea"><path d="M48,36a3.01,3.01,0,0,0,2.82-2H45.18A3.01,3.01,0,0,0,48,36Z"></path><rect x="14" y="13" width="4" height="22"></rect><polygon points="16.25 42 17.67 37 14.33 37 15.75 42 16.25 42"></polygon><path d="M44.33,25.36a1,1,0,0,1,.67.94V28h6V26.3a1,1,0,0,1,.67-.94,11,11,0,1,0-7.34,0ZM41,16h2.323l1.748-4.372a1,1,0,0,1,1.636-.335L48,12.586l1.293-1.293a1,1,0,0,1,1.636.335L52.677,16H55v2H52a1,1,0,0,1-.929-.628l-1.436-3.593-.928.928a1,1,0,0,1-1.414,0l-.928-.928-1.436,3.593A1,1,0,0,1,44,18H41Z"></path><rect x="43" y="30" width="10" height="2"></rect><path d="M56,25.22a13.24,13.24,0,0,1-3,1.77V28h1a1,1,0,0,1,1,1v4a1,1,0,0,1-1,1H52.9a5,5,0,0,1-9.8,0H42a1,1,0,0,1-1-1V29a1,1,0,0,1,1-1h1V26.99A13.065,13.065,0,0,1,37.07,22H33V56H56ZM42,52H35V50h7Zm12,0H44V50H54Zm0-5H35V45H54Zm0-5H35V40H54Z"></path><path d="M58,24V57a1,1,0,0,1-1,1H7a1,1,0,0,1-1-1V24H4V60H60V24Z"></path><path d="M31,22H20V36a.8.8,0,0,1-.04.27l-2,7A1,1,0,0,1,17,44v2a1,1,0,0,1-2,0V44a1,1,0,0,1-.96-.73l-2-7A.8.8,0,0,1,12,36V22H8V56H31Z"></path><path d="M18,6a2,2,0,0,0-4,0v5h4Z"></path><path d="M22,19h2V12a1,1,0,0,0-1-1H19v2h3Z"></path></g></svg>