<svg height='100px' width='100px'  fill="#1A1A1A" xmlns="http://www.w3.org/2000/svg" xmlns:xlink="http://www.w3.org/1999/xlink" version="1.1" x="0px" y="0px" viewBox="0 0 100 100" style="enable-background:new 0 0 100 100;" xml:space="preserve"><path d="M94.4,8.4c0.8-0.8,0.8-2,0-2.8c-0.8-0.8-2-0.8-2.8,0L80.3,16.8c-7.3-6.7-16.7-11-27.2-11.7C52,5,51.1,5.9,51,7  c-0.1,1.1,0.8,2.1,1.9,2.1c9.5,0.7,18,4.6,24.6,10.6l-8.5,8.5c-4.3-3.8-9.8-6.3-15.8-6.9c-1.1-0.1-2.1,0.7-2.2,1.8  c-0.1,1.1,0.7,2.1,1.8,2.2c5.1,0.6,9.7,2.7,13.4,5.8l-8.5,8.5c-1.2-0.9-2.6-1.6-4.1-2c-1.1-0.3-2.2,0.3-2.5,1.4  c-0.3,1.1,0.3,2.2,1.4,2.5c0.8,0.2,1.6,0.6,2.3,1L45,52.2V12.3c0-1.7-1-3.1-2.6-3.7c-1.6-0.6-3.3-0.2-4.4,1.1L18.1,32H13  c-4.4,0-8,3.6-8,8v20c0,4.4,3.6,8,8,8h5.1l5.2,5.9L5.6,91.6c-0.8,0.8-0.8,2,0,2.8C6,94.8,6.5,95,7,95s1-0.2,1.4-0.6L26,76.9l12,13.5  c0.8,0.9,1.9,1.3,3,1.3c0.5,0,1-0.1,1.4-0.3c1.6-0.6,2.6-2.1,2.6-3.7V57.8l12.6-12.6c0.9,1.4,1.4,3,1.4,4.8c0,4-2.7,7.6-6.5,8.7  c-1.1,0.3-1.7,1.4-1.4,2.5c0.2,0.9,1.1,1.5,1.9,1.5c0.2,0,0.4,0,0.5-0.1C59.1,60.9,63,55.8,63,50c0-2.8-0.9-5.5-2.5-7.7l8.5-8.5  c3.7,4.4,6,10,6,16.2c0,12.8-9.6,23.4-22.2,24.8C51.7,75,50.9,76,51,77c0.1,1,1,1.8,2,1.8c0.1,0,0.1,0,0.2,0  C67.9,77.2,79,64.8,79,50c0-7.3-2.7-13.9-7.1-19.1l8.5-8.5C87,29.8,91,39.5,91,50c0,21.5-16.8,39.4-38.1,40.9  c-1.1,0.1-1.9,1-1.9,2.1c0.1,1.1,1,1.9,2,1.9c0,0,0.1,0,0.1,0C76.6,93.3,95,73.5,95,50c0-11.6-4.5-22.3-11.8-30.3L94.4,8.4z   M20.5,64.7C20.1,64.2,19.6,64,19,64h-6c-2.2,0-4-1.8-4-4V40c0-2.2,1.8-4,4-4h6c0.6,0,1.1-0.2,1.5-0.7L41,12.3v43.9L26.1,71  L20.5,64.7z M41,87.7L28.8,74L41,61.8V87.7z"></path></svg>