<svg height='100px' width='100px'  fill="#1A1A1A" xmlns="http://www.w3.org/2000/svg" xmlns:xlink="http://www.w3.org/1999/xlink" version="1.1" x="0px" y="0px" viewBox="0 0 48 48" style="enable-background:new 0 0 48 48;" xml:space="preserve"><g><path d="M30.75,17h-13.5c-0.55,0-1,0.45-1,1v6c0,0.55,0.45,1,1,1h13.5c0.55,0,1-0.45,1-1v-6C31.75,17.45,31.3,17,30.75,17z"></path><path d="M30.75,27h-13.5c-0.55,0-1,0.45-1,1s0.45,1,1,1h13.5c0.55,0,1-0.45,1-1S31.3,27,30.75,27z"></path><path d="M30.75,33h-13.5c-0.55,0-1,0.45-1,1s0.45,1,1,1h13.5c0.55,0,1-0.45,1-1S31.3,33,30.75,33z"></path><path d="M30.75,39h-13.5c-0.55,0-1,0.45-1,1s0.45,1,1,1h13.5c0.55,0,1-0.45,1-1S31.3,39,30.75,39z"></path><path d="M14.25,45h19.5c0.55,0,1-0.45,1-1V14c0-0.55-0.45-1-1-1h-16.5V4c0-0.55-0.45-1-1-1s-1,0.45-1,1v9h-1c-0.55,0-1,0.45-1,1v30   C13.25,44.55,13.7,45,14.25,45z M15.25,15h17.5v28h-17.5V15z"></path></g></svg>