<svg height='100px' width='100px'  fill="#1A1A1A" xmlns="http://www.w3.org/2000/svg" xmlns:xlink="http://www.w3.org/1999/xlink" version="1.1" x="0px" y="0px" viewBox="0 0 90 90" enable-background="new 0 0 90 90" xml:space="preserve"><path fill-rule="evenodd" clip-rule="evenodd" d="M88.497,56.006l0.066,7.078l-14.158,0.135l-0.067-7.08  C74.197,42.032,70.404,34.686,62.955,34.1c-8.885,0.52-21.426,6.83-37.62,18.929l20.598,3.104l-2.127,14L7.093,64.598  c-1.924-0.295-3.467-1.229-4.636-2.803c-0.602-0.816-1.01-1.678-1.221-2.586l-0.127-0.732l-0.047-0.951  c0.009-0.428,0.055-0.861,0.142-1.307l6.661-33.439l13.884,2.764L18.83,40.221c18.61-13.628,33.217-20.386,43.822-20.274  C79.627,18.76,88.239,30.779,88.497,56.006z"></path></svg>