<svg height='100px' width='100px'  fill="#1A1A1A" xmlns:x="http://ns.adobe.com/Extensibility/1.0/" xmlns:i="http://ns.adobe.com/AdobeIllustrator/10.0/" xmlns:graph="http://ns.adobe.com/Graphs/1.0/" xmlns="http://www.w3.org/2000/svg" xmlns:xlink="http://www.w3.org/1999/xlink" version="1.1" x="0px" y="0px" viewBox="0 0 100 100" style="enable-background:new 0 0 100 100;" xml:space="preserve"><g><g i:extraneous="self"><g><path d="M25.7,25.7c-1.7,1.7-1.7,4.3,0,6c1.7,1.6,4.3,1.7,6,0c4.1-4.1,10.7-4.1,14.7,0c1.7,1.6,4.3,1.7,6,0c1.7-1.7,1.7-4.3,0-6     C45,18.3,33,18.3,25.7,25.7z"></path><path d="M96.3,83.7L80,67.4c-1.6-1.6-4.1-1.6-5.7,0l-0.5,0.5l-6.1-6.2C79,47.3,78.1,26.4,64.8,13.2c-14.2-14.2-37.4-14.2-51.7,0     c-14.2,14.2-14.2,37.4,0,51.7C26.4,78.1,47.3,79,61.7,67.6l6.2,6.1l-0.5,0.5c-1.6,1.6-1.6,4.1,0,5.7l16.3,16.3     c1.6,1.6,4.1,1.6,5.7,0l6.9-6.9C97.9,87.8,97.9,85.3,96.3,83.7z M19.2,58.9c-10.9-10.9-10.9-28.7,0-39.7     c10.9-10.9,28.7-10.9,39.7,0c10.9,10.9,10.9,28.7,0,39.7C47.9,69.8,30.1,69.8,19.2,58.9z"></path></g></g></g></svg>