<svg height='100px' width='100px'  fill="#1A1A1A" xmlns:x="http://ns.adobe.com/Extensibility/1.0/" xmlns:i="http://ns.adobe.com/AdobeIllustrator/10.0/" xmlns:graph="http://ns.adobe.com/Graphs/1.0/" xmlns="http://www.w3.org/2000/svg" xmlns:xlink="http://www.w3.org/1999/xlink" version="1.1" x="0px" y="0px" viewBox="0 0 100 100" style="enable-background:new 0 0 100 100;" xml:space="preserve"><g><g i:extraneous="self"><g><path d="M25.7,18.6c0.7-0.6,1.1-1.4,1.1-2.3v-2.1H16.4v2.1c0,0.9,0.4,1.7,1.1,2.3C19.8,20.6,23.3,20.6,25.7,18.6z"></path><path d="M39.2,46.3c0-1.2-1-2.1-2.1-2.1h-2.8v-9.6c0-3.2-1.4-6.1-3.8-8.1c-0.5-0.4-1-0.7-1.5-1c0.5-0.3,1-0.6,1.5-1     c2.4-2,3.8-4.9,3.8-8.1V6.8H37c1.2,0,2.1-1,2.1-2.1c0-1.2-1-2.1-2.1-2.1H6.1C4.9,2.5,4,3.5,4,4.6c0,1.2,1,2.1,2.1,2.1h2.8v9.6     c0,3.1,1.4,6.1,3.8,8.1c0.5,0.4,1,0.7,1.5,1c-0.5,0.3-1,0.6-1.5,1c-2.4,2-3.8,4.9-3.8,8.1v9.6H6.1c-1.2,0-2.1,1-2.1,2.1     c0,1.2,1,2.1,2.1,2.1H37C38.2,48.4,39.2,47.4,39.2,46.3z M13.1,16.3V6.8H30v9.6c0,1.9-0.8,3.6-2.3,4.8c-3.6,2.9-8.7,2.9-12.3,0     C14,19.9,13.1,18.2,13.1,16.3z M30,44.1H13.1v-9.6c0-1.9,0.8-3.6,2.3-4.8c3.6-2.9,8.7-2.9,12.3,0c1.4,1.2,2.3,2.9,2.3,4.8V44.1z"></path><path d="M22.2,33.1c-0.4-0.3-0.9-0.3-1.2,0c-1.4,1.2-4.6,4-4.6,4.7v3.1h10.4v-3.1C26.8,37.1,23.6,34.3,22.2,33.1z"></path><path d="M95.8,24.6c-1.2-6.4-7.4-9.2-12.4-10.3c0.1,0.8,0.2,1.7,0.2,2.5c0,2.5-0.6,4.8-1.7,6.9c2.4,0.6,4.4,1.7,4.6,2.7     c0.1,0.7,0,1-0.3,1.4c-1.7,2-7.1,3.4-11.2,3.4H62.4c-4.1,0-9.5-1.4-11.2-3.4c-0.3-0.4-0.5-0.7-0.3-1.4c0.2-1,2.2-2,4.6-2.7     c-1.1-2.1-1.7-4.4-1.7-6.9c0-0.8,0.1-1.7,0.2-2.5c-5,1.2-11.2,3.9-12.4,10.3c-0.6,3.4,0.2,6.5,2.3,9.1c3.3,3.9,8.8,5.6,13,6.2     c-1.3,3.5-3.7,10.6-5.5,16.8c-5-0.1-13.8-0.3-17.1-0.3c-1.8,0-3.6,0.8-4.9,2.2c-3,3.1-4.5,11.2-4.5,24l-8.5,4.5     c-2.7,1.4-3.7,4.7-2.3,7.4c1,1.9,2.9,2.9,4.9,2.9c0.9,0,1.7-0.2,2.5-0.6l39.2-20.4c5-2.2,7.8-5.2,8.9-8.2     c2.2-5.3,7.4-21.9,9.3-28.1c4.3-0.5,10.8-2,14.5-6.5C95.7,31.1,96.5,28,95.8,24.6z M36.1,76.9c0.2-3.9,0.5-7.4,1-9.4     c5,0.1,13.5,0.3,16.5,0.3L36.1,76.9z"></path><circle cx="68.7" cy="16.7" r="11"></circle></g></g></g></svg>