<svg height='100px' width='100px'  fill="#1A1A1A" xmlns="http://www.w3.org/2000/svg" xmlns:xlink="http://www.w3.org/1999/xlink" version="1.1" x="0px" y="0px" viewBox="0 0 100 100" enable-background="new 0 0 100 100" xml:space="preserve"><g><g><g><g><path d="M63.1,50.4c0,0.6-0.2,1.2-0.7,1.8c-3.8,3.8-7.7,7.7-11.5,11.5c-2.3,2.3-5.8-1.2-3.5-3.5c2.5-2.5,4.9-4.9,7.4-7.4      c-13.7,0-27.5,0-41.2,0c-0.6,0-1.2-0.2-1.5-0.5c0,0,0,0,0,0c-0.6-0.4-1-1.1-0.9-2c0.3-13.7,7.2-26.4,19.1-33.5      C51.9,3.8,81,15.7,87.6,40.1C94.2,64.8,75.1,88.7,50,89.2c-3.2,0.1-3.2-4.9,0-5c13.8-0.3,26.4-8.4,31.5-21.3      c5-12.5,1.9-27.1-7.5-36.6c-9.5-9.5-24.1-12.5-36.6-7.5c-12.1,4.8-20.1,16.3-21.2,29c12.8,0,25.5,0,38.3,0      c-2.5-2.5-4.9-4.9-7.4-7.4c-2.3-2.3,1.3-5.8,3.5-3.5c3.9,3.9,7.8,7.8,11.8,11.8C62.9,49.2,63.1,49.8,63.1,50.4z"></path></g></g></g></g></svg>