<svg height='100px' width='100px'  fill="#1A1A1A" xmlns="http://www.w3.org/2000/svg" xmlns:xlink="http://www.w3.org/1999/xlink" version="1.1" x="0px" y="0px" viewBox="0 0 100 100" enable-background="new 0 0 100 100" xml:space="preserve"><g><circle cx="50" cy="13.639" r="7.813"></circle><path d="M80.4,5.136c-1.282-1.282-3.36-1.282-4.642,0c0,0-12.326,14.066-18.398,16.397c-3.467,1.331-11.321,1.408-14.721,0   C36.63,19.044,24.242,5.136,24.242,5.136c-1.282-1.282-3.36-1.282-4.643,0c-1.281,1.282-1.282,3.36,0,4.643l19.159,19.157   c0,0,0.965,0.979,1.141,1.403c0.193,0.466,0.162,1.918,0.162,1.918v59.317c0,2.349,1.903,4.251,4.252,4.251   c2.347,0,4.25-1.902,4.25-4.251c0,0,0-31.878,0-31.895c0-0.794,0.643-1.437,1.436-1.437H50h0.001c0.793,0,1.436,0.643,1.436,1.437   c0,0.017,0,31.895,0,31.895c0,2.349,1.903,4.251,4.25,4.251c2.35,0,4.252-1.902,4.252-4.251V32.256c0,0-0.066-1.472,0.127-1.938   c0.18-0.433,1.199-1.405,1.199-1.405L80.4,9.778C81.683,8.496,81.683,6.418,80.4,5.136z"></path></g></svg>