<svg height='100px' width='100px'  fill="#1A1A1A" xmlns="http://www.w3.org/2000/svg" viewBox="0 0 64 64" x="0px" y="0px"><title>business, strategy, finance, time, clock, alarm, watch</title><g><path d="M47.9546,42.3662a1,1,0,0,1,1-1.7324l1.6949.9785A20.8323,20.8323,0,0,0,52.9493,33H51a1,1,0,0,1,0-2h1.9493a20.8323,20.8323,0,0,0-2.3-8.6123l-1.6949.9785a1,1,0,0,1-1-1.7324l1.6915-.9766a21.14,21.14,0,0,0-6.3033-6.3032l-.9766,1.6919a1,1,0,1,1-1.7324-1l.9786-1.6953A20.8325,20.8325,0,0,0,33,11.0507V13a1,1,0,0,1-2,0V11.0507a20.8325,20.8325,0,0,0-8.6124,2.3l.9786,1.6953a1,1,0,0,1-1.7324,1l-.9766-1.6919a21.14,21.14,0,0,0-6.3033,6.3032l1.6915.9766a1,1,0,0,1-1,1.7324l-1.6949-.9785A20.8323,20.8323,0,0,0,11.0507,31H13a1,1,0,0,1,0,2H11.0507a20.8323,20.8323,0,0,0,2.3,8.6123l1.6949-.9785a1,1,0,1,1,1,1.7324l-1.6915.9766a21.14,21.14,0,0,0,6.3033,6.3032l.9766-1.6919a1,1,0,0,1,1.7324,1l-.9786,1.6953A20.8325,20.8325,0,0,0,31,52.9493V51a1,1,0,0,1,2,0v1.9493a20.8325,20.8325,0,0,0,8.6124-2.3l-.9786-1.6953a1,1,0,1,1,1.7324-1l.9766,1.6919a21.14,21.14,0,0,0,6.3033-6.3032ZM40.8481,37.53a.9994.9994,0,0,1-1.3779.3174l-8-5A1,1,0,0,1,31,32V21a1,1,0,0,1,2,0V31.4453l7.53,4.707A1,1,0,0,1,40.8481,37.53ZM32,5A27,27,0,1,0,59,32,27.0308,27.0308,0,0,0,32,5Zm0,50A23,23,0,1,1,55,32,23.0418,23.0418,0,0,1,32,55Z"></path></g></svg>