<svg height='100px' width='100px'  fill="#1A1A1A" xmlns="http://www.w3.org/2000/svg" xmlns:xlink="http://www.w3.org/1999/xlink" viewBox="0 0 40 40" version="1.1" x="0px" y="0px"><title>Cloud download</title><desc>Created with Sketch.</desc><g stroke="none" stroke-width="1" fill="none" fill-rule="evenodd"><g fill="#1A1A1A" fill-rule="nonzero"><path d="M38,19.5 C38,24.1944204 34.1944204,28 29.5,28 L26,28 C24.8954305,28 24,27.1045695 24,26 C24,24.8954305 24.8954305,24 26,24 L29.5,24 C31.9852814,24 34,21.9852814 34,19.5 C34,17.0147186 31.9852814,15 29.5,15 C29.3565071,15 29.2141226,15.0066526 29.07308,15.0198514 L27.1995961,15.1951737 L26.9104812,13.3358478 C26.3468544,9.71110892 23.2091653,7 19.5,7 C18.0246659,7 16.6174304,7.42472678 15.4103516,8.21180899 C14.4851022,8.81512275 13.245957,8.55414241 12.6426433,7.6288931 C12.0393295,6.70364378 12.3003099,5.46449858 13.2255592,4.86118483 C15.0776819,3.65349833 17.2428998,3 19.5,3 C24.6046801,3 29.0012821,6.34626929 30.4752886,11.0553437 C34.7103806,11.5391328 38,15.1354005 38,19.5 Z M8.79528305,10.2907806 C9.19971651,9.26291513 10.3608242,8.75752365 11.3886896,9.16195711 C12.4165551,9.56639057 12.9219465,10.7274982 12.5175131,11.7553637 C12.1770177,12.6207308 12,13.5464933 12,14.5 C12,14.6389859 12.003759,14.7774182 12.0112458,14.9152129 L12.1369666,17.229108 L9.82955459,17.0151779 C9.72072313,17.0050876 9.61081768,17 9.5,17 C7.56700338,17 6,18.5670034 6,20.5 C6,22.4329966 7.56700338,24 9.5,24 L14,24 C15.1045695,24 16,24.8954305 16,26 C16,27.1045695 15.1045695,28 14,28 L9.5,28 C5.35786438,28 2,24.6421356 2,20.5 C2,16.8431919 4.61709123,13.7976382 8.08045762,13.134155 C8.19648116,12.1554361 8.43696779,11.2014368 8.79528305,10.2907806 Z"></path><path d="M18.40946,19.7873156 C18.7748858,19.3087584 19.3513857,19 20,19 C20.0042192,19 20.0084354,19.0000131 20.0126485,19.0000392 C20.5286697,18.9968202 21.0456991,19.1920693 21.4394163,19.5857864 L25.6418522,23.7882224 C26.4229008,24.569271 26.4229008,25.8356009 25.6418522,26.6166495 C24.8608037,27.3976981 23.5944737,27.3976981 22.8134251,26.6166495 L22,25.8032244 L22,35 C22,36.1045695 21.1045695,37 20,37 C18.8954305,37 18,36.1045695 18,35 L18,25.8536298 L17.4142136,26.4394163 C16.633165,27.2204649 15.366835,27.2204649 14.5857864,26.4394163 C13.8047379,25.6583677 13.8047379,24.3920377 14.5857864,23.6109892 L18.40946,19.7873156 Z" transform="translate(20.113819, 28.000000) rotate(-180.000000) translate(-20.113819, -28.000000) "></path></g></g></svg>