<svg height='100px' width='100px'  fill="#1A1A1A" xmlns="http://www.w3.org/2000/svg" viewBox="0 0 68 66" x="0px" y="0px"><path fill="#1A1A1A" d="M327,354 C328.104569,354 329,354.895431 329,356 C329,357.104569 328.104569,358 327,358 C309.879173,358 296,344.120827 296,327 C296,309.879173 309.879173,296 327,296 C344.120827,296 358,309.879173 358,327 C358,328.104569 357.104569,329 356,329 C354.895431,329 354,328.104569 354,327 C354,312.088312 341.911688,300 327,300 C312.088312,300 300,312.088312 300,327 C300,341.911688 312.088312,354 327,354 Z M351,362 C343.820298,362 338,356.179702 338,349 C338,341.820298 343.820298,336 351,336 C358.179702,336 364,341.820298 364,349 C364,356.179702 358.179702,362 351,362 Z M351,358 C355.970563,358 360,353.970563 360,349 C360,344.029437 355.970563,340 351,340 C346.029437,340 342,344.029437 342,349 C342,353.970563 346.029437,358 351,358 Z M352.585786,345.585786 C353.366835,344.804738 354.633165,344.804738 355.414214,345.585786 C356.195262,346.366835 356.195262,347.633165 355.414214,348.414214 L351.414214,352.414214 C350.633165,353.195262 349.366835,353.195262 348.585786,352.414214 L346.585786,350.414214 C345.804738,349.633165 345.804738,348.366835 346.585786,347.585786 C347.366835,346.804738 348.633165,346.804738 349.414214,347.585786 L350,348.171573 L352.585786,345.585786 Z M338,326 C339.104569,326 340,326.895431 340,328 C340,329.104569 339.104569,330 338,330 L326,330 C324.895431,330 324,329.104569 324,328 L324,310 C324,308.895431 324.895431,308 326,308 C327.104569,308 328,308.895431 328,310 L328,326 L338,326 Z" transform="translate(-296 -296)"></path></svg>